<svg width="201" height="193" viewBox="0 0 201 193" fill="none" xmlns="http://www.w3.org/2000/svg">
<path d="M170.905 57.8871L170.905 55.6933L169.006 54.5965L102.163 16.0051L100.263 14.9082L98.3636 16.0051L31.5214 54.5964L29.6216 55.6933L29.6216 57.887L29.6216 135.07L29.6216 137.263L31.5214 138.36L98.3637 176.952L100.263 178.049L102.163 176.952L169.006 138.36L170.905 137.264L170.905 135.07L170.905 57.8871Z" fill="#009EFF" stroke="#F7F7F7" stroke-width="7.59931"/>
<path d="M91.9297 112.984V101.416H99.1556V90.9385H91.9297V57.0736H75.4613L53.1953 92.0282V101.416H79.9985V112.984H91.9297ZM79.9985 90.9385H64.8744L79.9985 67.6354V90.9385Z" fill="white"/>
<path d="M127.276 113.99C143.241 113.99 150.466 99.4885 150.466 85.0708C150.466 70.6531 143.241 56.2354 127.276 56.2354C111.228 56.2354 104.086 70.6531 104.086 85.0708C104.086 99.4885 111.228 113.99 127.276 113.99ZM127.276 103.428C119.21 103.428 116.185 95.3812 116.185 85.0708C116.185 74.7605 119.21 66.7972 127.276 66.7972C135.258 66.7972 138.283 74.7605 138.283 85.0708C138.283 95.3812 135.258 103.428 127.276 103.428Z" fill="white"/>
<path d="M91.5559 132.91V123.362C91.5559 120.654 90.106 119.368 87.6712 119.368C85.6467 119.368 83.8958 120.572 83.1298 121.776C82.6374 120.271 81.4063 119.368 79.4639 119.368C77.4395 119.368 75.6886 120.627 75.1414 121.42V119.696H71.667V132.91H75.1414V124.019C75.6612 123.28 76.6734 122.46 77.8772 122.46C79.2998 122.46 79.8469 123.335 79.8469 124.566V132.91H83.3487V123.992C83.8411 123.28 84.8533 122.46 86.0844 122.46C87.507 122.46 88.0542 123.335 88.0542 124.566V132.91H91.5559ZM96.6872 118.274C97.8362 118.274 98.7664 117.344 98.7664 116.195C98.7664 115.046 97.8362 114.143 96.6872 114.143C95.5655 114.143 94.608 115.046 94.608 116.195C94.608 117.344 95.5655 118.274 96.6872 118.274ZM98.4381 132.91V119.696H94.9637V132.91H98.4381ZM105.358 132.91V114.663H101.883V132.91H105.358ZM115.013 133.238C117.065 133.238 119.144 132.609 120.457 131.405L118.925 129.162C118.077 129.983 116.518 130.475 115.396 130.475C113.153 130.475 111.812 129.08 111.593 127.411H121.415V126.645C121.415 122.323 118.733 119.368 114.794 119.368C110.772 119.368 107.955 122.46 107.955 126.29C107.955 130.53 110.991 133.238 115.013 133.238ZM118.05 125.059H111.538C111.703 123.745 112.633 122.131 114.794 122.131C117.092 122.131 117.967 123.8 118.05 125.059ZM128.684 133.238C132.35 133.238 134.402 131.405 134.402 128.998C134.402 123.663 126.578 125.305 126.578 123.335C126.578 122.596 127.399 122.022 128.657 122.022C130.271 122.022 131.776 122.706 132.569 123.554L133.964 121.174C132.651 120.134 130.873 119.368 128.63 119.368C125.155 119.368 123.213 121.311 123.213 123.527C123.213 128.724 131.064 126.946 131.064 129.135C131.064 129.956 130.353 130.557 128.849 130.557C127.207 130.557 125.237 129.655 124.28 128.752L122.775 131.187C124.17 132.472 126.386 133.238 128.684 133.238Z" fill="white"/>
</svg>
