<svg width="17" height="13" viewBox="0 0 17 13" fill="none" xmlns="http://www.w3.org/2000/svg">
<g clip-path="url(#clip0_470_6657)">
<path d="M2.78017 12.7688C2.10468 11.6931 1.72057 10.4469 1.6685 9.1621C1.61642 7.87728 1.89832 6.60169 2.48435 5.47034C3.07039 4.33899 3.93874 3.394 4.9975 2.7354C6.05625 2.07679 7.26601 1.72909 8.4987 1.72909C9.7314 1.72909 10.9412 2.07679 11.9999 2.7354C13.0587 3.394 13.927 4.33899 14.5131 5.47034C15.0991 6.60169 15.381 7.87728 15.3289 9.1621C15.2768 10.4469 14.8927 11.6931 14.2172 12.7688H16.1312C16.7669 11.4169 17.0622 9.91843 16.9891 8.41455C16.916 6.91067 16.4771 5.45098 15.7136 4.17307C14.9501 2.89516 13.8872 1.84113 12.6251 1.11034C11.3631 0.37956 9.94343 -0.00390625 8.5 -0.00390625C7.05657 -0.00390625 5.63692 0.37956 4.37486 1.11034C3.11281 1.84113 2.04994 2.89516 1.28644 4.17307C0.52294 5.45098 0.0839668 6.91067 0.010899 8.41455C-0.0621688 9.91843 0.233076 11.4169 0.868803 12.7688H2.78017Z" fill="#4A4AF4"/>
<path d="M8.61415 4.65332C7.3693 4.65332 5.93643 5.26612 5.1584 5.91274L5.8677 7.47247C6.49142 6.87725 7.50027 6.36861 8.40927 6.36861C9.27419 6.36861 9.75008 6.66893 9.75008 7.27767C9.75008 7.68349 9.43368 7.91617 8.8359 7.97299C6.59387 8.18807 4.85107 8.91991 4.85107 10.715C4.85107 12.1395 5.83528 12.9998 7.45489 12.9998C7.94176 13.0005 8.42003 12.8659 8.84051 12.6098C9.26098 12.3538 9.6085 11.9855 9.84734 11.5429V12.7672H11.8676V7.6348C11.8676 5.51503 10.4542 4.65873 8.61415 4.65873V4.65332ZM8.02415 11.3535C7.37579 11.3535 7.01141 11.0613 7.01141 10.5825C7.01141 9.58142 8.17846 9.34062 9.70859 9.34062C9.70859 10.3877 9.03688 11.3535 8.02285 11.3535H8.02415Z" fill="#060809"/>
</g>
<defs>
<clipPath id="clip0_470_6657">
<rect width="17" height="13" fill="white"/>
</clipPath>
</defs>
</svg>
