<svg width="27" height="17" viewBox="0 0 27 17" fill="none" xmlns="http://www.w3.org/2000/svg">
<g clip-path="url(#clip0_470_6569)">
<path opacity="0.07" d="M24.3064 0H2.81186C1.66997 0 0.796753 0.873214 0.796753 2.01511V14.1058C0.796753 15.2477 1.73714 16.1209 2.81186 16.1209H24.3064C25.4483 16.1209 26.3215 15.2477 26.3215 14.1058V2.01511C26.3215 0.873214 25.3811 0 24.3064 0Z" fill="black"/>
<path d="M24.3064 0.671875C25.0453 0.671875 25.6498 1.27641 25.6498 2.01528V14.1059C25.6498 14.8448 25.0453 15.4493 24.3064 15.4493H2.81191C2.07304 15.4493 1.46851 14.8448 1.46851 14.1059V2.01528C1.46851 1.27641 2.07304 0.671875 2.81191 0.671875H24.3064Z" fill="white"/>
<path d="M15.3055 2.95559C12.4844 2.01521 9.46173 3.49296 8.45417 6.31411C7.44662 9.13526 8.99154 12.1579 11.8127 13.1655C14.6338 14.173 17.6565 12.6281 18.6641 9.80697C19.6044 6.98581 18.1267 3.96315 15.3055 2.95559Z" fill="#EDA024"/>
<path d="M11.6112 5.57506L11.8127 4.90336C12.2157 5.0377 12.6859 5.17204 13.0889 5.37355C13.2233 5.0377 13.3576 4.70185 13.4248 4.29883L14.0293 4.50034L13.6935 5.50789L14.2308 5.7094L14.5667 4.70185L15.1712 4.90336C15.0369 5.23921 14.9025 5.57506 14.8354 5.97809L15.1041 6.11243C15.3056 6.24677 15.5071 6.38111 15.7086 6.58262C15.9101 6.78413 15.9773 6.98564 16.0444 7.25432C16.0444 7.45583 16.0444 7.65734 15.9101 7.85886C15.7758 8.19471 15.5743 8.39622 15.1712 8.46339H15.0369C15.1712 8.53056 15.2384 8.59773 15.3056 8.73207C15.5743 9.00075 15.6414 9.26943 15.5743 9.67245C15.5743 9.73962 15.5743 9.80679 15.5071 9.87396C15.5071 9.94113 15.5071 9.94114 15.4399 10.0083C15.3727 10.1426 15.3056 10.2098 15.3056 10.3442C15.1041 10.68 14.7682 10.9487 14.298 10.9487C13.9622 10.9487 13.6263 10.9487 13.3576 10.8815L13.0889 10.8144C12.9546 11.1502 12.8203 11.4861 12.7531 11.8891L12.1486 11.6876C12.2829 11.3517 12.4172 11.0159 12.4844 10.68L11.9471 10.4785C11.8127 10.8144 11.6784 11.1502 11.6112 11.4861L11.0067 11.2845C11.141 10.9487 11.2753 10.6128 11.3425 10.2098L10.0663 9.8068L10.4693 9.06792C10.6036 9.13509 10.8052 9.20226 10.9395 9.20226C11.0738 9.26943 11.2082 9.20226 11.2754 9.06792L12.2157 6.24677V6.1796C12.2157 5.97809 12.1486 5.84375 11.9471 5.84375C11.9471 5.7094 11.8127 5.64223 11.6112 5.57506ZM12.4172 9.60528C12.7531 9.73962 13.0218 9.80679 13.2905 9.87396C13.492 9.94113 13.6263 9.94114 13.8278 9.94114C13.9622 9.94114 14.0293 9.94113 14.1637 9.87396C14.4995 9.67245 14.5667 9.20226 14.298 8.93358L13.895 8.59773C13.6935 8.46339 13.4248 8.39622 13.1561 8.32905C13.0889 8.32905 12.9546 8.26188 12.8874 8.19471L12.4172 9.60528ZM13.0889 7.523C13.2905 7.59017 13.4248 7.65734 13.5591 7.65734C13.7607 7.72451 13.9622 7.79169 14.1637 7.72451C14.4324 7.72451 14.6339 7.65734 14.701 7.38866C14.7682 7.18715 14.7682 6.98564 14.701 6.8513C14.6339 6.71696 14.4995 6.64979 14.3652 6.58262C14.1637 6.44828 13.9622 6.38111 13.6935 6.31394L13.492 6.24677C13.4248 6.71696 13.2233 7.11998 13.0889 7.523Z" fill="white"/>
</g>
<defs>
<clipPath id="clip0_470_6569">
<rect width="25.5247" height="16.1209" fill="white" transform="translate(0.796753)"/>
</clipPath>
</defs>
</svg>
