<svg width="26" height="17" viewBox="0 0 26 17" fill="none" xmlns="http://www.w3.org/2000/svg">
<g clip-path="url(#clip0_470_6597)">
<path d="M24.2797 16.0857H2.00806C1.66385 16.0847 1.33404 15.9475 1.09065 15.7041C0.847255 15.4607 0.710047 15.1309 0.708984 14.7866V1.90942C0.710047 1.56522 0.847255 1.23541 1.09065 0.992015C1.33404 0.748622 1.66385 0.611414 2.00806 0.610352H24.2797C24.6239 0.611414 24.9537 0.748622 25.1971 0.992015C25.4405 1.23541 25.5777 1.56522 25.5788 1.90942V14.7866C25.5777 15.1309 25.4405 15.4607 25.1971 15.7041C24.9537 15.9475 24.6239 16.0847 24.2797 16.0857Z" fill="white"/>
<path opacity="0.25" d="M24.2694 16.407H2.01725C1.11448 16.407 0.380981 15.6836 0.380981 14.7949V1.89822C0.380981 1.00956 1.11448 0.286133 2.01725 0.286133H24.2694C25.1722 0.286133 25.9057 1.00956 25.9057 1.89822V14.7949C25.9057 15.6836 25.1722 16.407 24.2694 16.407ZM2.01725 0.930967C1.47586 0.930967 1.03522 1.36489 1.03522 1.89822V14.7949C1.03522 15.3283 1.47586 15.7622 2.01725 15.7622H24.2694C24.8108 15.7622 25.2515 15.3283 25.2515 14.7949V1.89822C25.2515 1.36489 24.8108 0.930967 24.2694 0.930967H2.01725Z" fill="#A7A8AB"/>
<path d="M13.0508 13.2118C15.8958 13.2118 18.2021 10.9055 18.2021 8.06047C18.2021 5.21549 15.8958 2.90918 13.0508 2.90918C10.2058 2.90918 7.89954 5.21549 7.89954 8.06047C7.89954 10.9055 10.2058 13.2118 13.0508 13.2118Z" fill="#CBA747"/>
<path d="M16.0157 7.3919C15.8175 6.21441 14.8738 5.61323 14.3962 5.45874C13.9186 5.30626 10.7603 5.3694 10.7603 5.3694C10.6891 5.45672 10.7327 6.64429 10.7327 6.64429L11.4521 6.64026L11.4662 7.55244H10.8456C10.8362 7.55235 10.8269 7.55413 10.8182 7.55768C10.8095 7.56122 10.8017 7.56646 10.795 7.57309C10.7884 7.57972 10.7832 7.58761 10.7796 7.59629C10.7761 7.60496 10.7743 7.61426 10.7744 7.62364V8.52372C10.7744 8.56335 10.8059 8.59492 10.8456 8.59492H11.4763C11.4783 9.08056 11.4723 9.46948 11.4528 9.47687C11.3991 9.49836 10.8147 9.44731 10.7569 9.48694C10.7012 9.52456 10.7314 10.2285 10.7314 10.4979C10.7294 10.7672 10.8026 10.7558 10.8026 10.7558C14.151 10.6705 14.0698 10.9781 15.0135 10.4126C15.9572 9.84765 16.2172 8.57074 16.0163 7.39123L16.0157 7.3919ZM12.4503 9.47351V8.5835L13.5257 8.59492C13.5448 8.5951 13.5632 8.58772 13.5769 8.57439C13.5906 8.56105 13.5985 8.54284 13.5989 8.52372V7.62364C13.5985 7.60452 13.5906 7.58631 13.5769 7.57297C13.5632 7.55964 13.5448 7.55226 13.5257 7.55244L12.4503 7.55445V6.561C12.4503 6.561 14.9127 6.28829 14.9127 8.13481C14.9127 9.90945 12.4503 9.47351 12.4503 9.47351Z" fill="white"/>
</g>
<defs>
<clipPath id="clip0_470_6597">
<rect width="25.5247" height="16.1209" fill="white" transform="translate(0.288452)"/>
</clipPath>
</defs>
</svg>
