<svg width="26" height="17" viewBox="0 0 26 17" fill="none" xmlns="http://www.w3.org/2000/svg">
<g clip-path="url(#clip0_470_6650)">
<path opacity="0.07" d="M23.985 0H2.49045C1.34856 0 0.475342 0.873214 0.475342 2.01511V14.1058C0.475342 15.2477 1.41573 16.1209 2.49045 16.1209H23.985C25.1269 16.1209 26.0001 15.2477 26.0001 14.1058V2.01511C26.0001 0.873214 25.0597 0 23.985 0Z" fill="black"/>
<path d="M23.985 0.671875C24.7239 0.671875 25.3284 1.27641 25.3284 2.01528V14.1059C25.3284 14.8448 24.7239 15.4493 23.985 15.4493H2.4905C1.75163 15.4493 1.14709 14.8448 1.14709 14.1059V2.01528C1.14709 1.27641 1.75163 0.671875 2.4905 0.671875H23.985Z" fill="white"/>
<path d="M19.4845 6.7846H19.283C19.0144 7.4563 18.8128 7.79216 18.6113 8.79971H19.8876C19.6861 7.79216 19.6861 7.32196 19.4845 6.7846ZM21.4325 10.7476H20.2906C20.2234 10.7476 20.2234 10.7476 20.1563 10.6805L20.0219 10.0759L19.9547 9.94161H18.3427C18.2755 9.94161 18.2083 9.94161 18.2083 10.0759L18.0068 10.6805C18.0068 10.7476 17.9396 10.7476 17.9396 10.7476H16.5291L16.6634 10.4118L18.6113 5.84422C18.6113 5.50836 18.8128 5.37402 19.1487 5.37402H20.1563C20.2234 5.37402 20.2906 5.37402 20.2906 5.50836L21.231 9.87444C21.2981 10.1431 21.3653 10.3446 21.3653 10.6133C21.4325 10.6805 21.4325 10.6805 21.4325 10.7476ZM12.4317 10.5461L12.7003 9.33707C12.7675 9.33707 12.8347 9.40424 12.8347 9.40424C13.3049 9.60575 13.7751 9.74009 14.2453 9.67292C14.3796 9.67292 14.5811 9.60575 14.7155 9.53858C15.0513 9.40424 15.0513 9.06839 14.7826 8.79971C14.6483 8.66537 14.4468 8.5982 14.2453 8.46386C13.9766 8.32952 13.7079 8.19518 13.5064 7.99367C12.7003 7.32196 12.969 6.38158 13.4392 5.91139C13.8422 5.6427 14.0438 5.37402 14.5811 5.37402C15.3872 5.37402 16.2604 5.37402 16.6634 5.50836H16.7306C16.6634 5.91139 16.5962 6.24724 16.4619 6.65026C16.126 6.51592 15.7902 6.38158 15.4543 6.38158C15.2528 6.38158 15.0513 6.38158 14.8498 6.44875C14.7155 6.44875 14.6483 6.51592 14.5811 6.58309C14.4468 6.71743 14.4468 6.91894 14.5811 7.05328L14.917 7.32196C15.1856 7.4563 15.4543 7.59064 15.6558 7.72498C15.9917 7.9265 16.3275 8.26235 16.3947 8.66537C16.5291 9.2699 16.3275 9.80726 15.7902 10.2103C15.4543 10.479 15.32 10.6133 14.8498 10.6133C13.9094 10.6133 13.1705 10.6805 12.566 10.479C12.4988 10.6133 12.4988 10.6133 12.4317 10.5461ZM10.0807 10.7476C10.1479 10.2775 10.1479 10.2775 10.215 10.0759C10.5509 8.5982 10.8867 7.05328 11.1554 5.57553C11.2226 5.44119 11.2226 5.37402 11.3569 5.37402H12.566C12.4317 6.18007 12.2973 6.7846 12.0958 7.52347C11.8943 8.53103 11.6928 9.53858 11.4241 10.5461C11.4241 10.6805 11.3569 10.6805 11.2226 10.6805L10.0807 10.7476ZM3.83386 5.50836C3.83386 5.44119 3.9682 5.37402 4.03537 5.37402H6.31916C6.65502 5.37402 6.9237 5.57553 6.99087 5.91139L7.5954 8.86688C7.5954 8.93405 7.5954 8.93405 7.66257 9.00122C7.66257 8.93405 7.72974 8.93405 7.72974 8.93405L9.14032 5.50836C9.07315 5.44119 9.14032 5.37402 9.20749 5.37402H10.6181C10.6181 5.44119 10.6181 5.44119 10.5509 5.50836L8.46861 10.4118C8.40144 10.5461 8.40144 10.6133 8.33427 10.6805C8.2671 10.7476 8.13276 10.6805 7.99842 10.6805H6.99087C6.9237 10.6805 6.85653 10.6805 6.85653 10.5461L5.7818 6.38158C5.64746 6.24724 5.44595 6.04573 5.17727 5.97856C4.77425 5.77705 4.03537 5.6427 3.90103 5.6427L3.83386 5.50836Z" fill="#142688"/>
</g>
<defs>
<clipPath id="clip0_470_6650">
<rect width="25.5247" height="16.1209" fill="white" transform="translate(0.475342)"/>
</clipPath>
</defs>
</svg>
