<svg width="27" height="17" viewBox="0 0 27 17" fill="none" xmlns="http://www.w3.org/2000/svg">
<g clip-path="url(#clip0_470_6627)">
<path opacity="0.07" d="M24.3915 0H2.89695C1.75505 0 0.881836 0.873214 0.881836 2.01511V14.1058C0.881836 15.2477 1.82222 16.1209 2.89695 16.1209H24.3915C25.5333 16.1209 26.4066 15.2477 26.4066 14.1058V2.01511C26.4066 0.873214 25.4662 0 24.3915 0Z" fill="black"/>
<path d="M24.3915 0.671875C25.1304 0.671875 25.7349 1.27641 25.7349 2.01528V14.1059C25.7349 14.8448 25.1304 15.4493 24.3915 15.4493H2.897C2.15812 15.4493 1.55359 14.8448 1.55359 14.1059V2.01528C1.55359 1.27641 2.15812 0.671875 2.897 0.671875H24.3915Z" fill="white"/>
<path d="M10.9574 12.7622C13.5542 12.7622 15.6593 10.6571 15.6593 8.06032C15.6593 5.46352 13.5542 3.3584 10.9574 3.3584C8.36062 3.3584 6.25549 5.46352 6.25549 8.06032C6.25549 10.6571 8.36062 12.7622 10.9574 12.7622Z" fill="#EB001B"/>
<path d="M16.331 12.7622C18.9278 12.7622 21.0329 10.6571 21.0329 8.06032C21.0329 5.46352 18.9278 3.3584 16.331 3.3584C13.7342 3.3584 11.629 5.46352 11.629 8.06032C11.629 10.6571 13.7342 12.7622 16.331 12.7622Z" fill="#F79E1B"/>
<path d="M15.6592 8.06015C15.6592 6.44807 14.8532 5.03749 13.6441 4.23145C12.4351 5.10466 11.629 6.51524 11.629 8.06015C11.629 9.60507 12.4351 11.0828 13.6441 11.8889C14.8532 11.0828 15.6592 9.67224 15.6592 8.06015Z" fill="#FF5F00"/>
</g>
<defs>
<clipPath id="clip0_470_6627">
<rect width="25.5247" height="16.1209" fill="white" transform="translate(0.881836)"/>
</clipPath>
</defs>
</svg>
