<svg width="26" height="17" viewBox="0 0 26 17" fill="none" xmlns="http://www.w3.org/2000/svg">
<g clip-path="url(#clip0_470_6613)">
<path opacity="0.07" d="M23.5948 0H2.10031C0.958419 0 0.0852051 0.873214 0.0852051 2.01511V14.1058C0.0852051 15.2477 1.02559 16.1209 2.10031 16.1209H23.5948C24.7367 16.1209 25.6099 15.2477 25.6099 14.1058V2.01511C25.6099 0.873214 24.6695 0 23.5948 0Z" fill="black"/>
<path d="M23.5949 0.671875C24.3337 0.671875 24.9383 1.27641 24.9383 2.01528V14.1059C24.9383 14.8448 24.3337 15.4493 23.5949 15.4493H2.10036C1.36149 15.4493 0.756958 14.8448 0.756958 14.1059V2.01528C0.756958 1.27641 1.36149 0.671875 2.10036 0.671875H23.5949Z" fill="white"/>
<path fill-rule="evenodd" clip-rule="evenodd" d="M7.80975 3.3584H10.1607V11.083C10.1607 11.5284 9.98379 11.9555 9.66887 12.2704C9.35395 12.5853 8.92682 12.7622 8.48145 12.7622H6.13049V5.03766C6.13049 4.59229 6.30741 4.16516 6.62234 3.85024C6.93726 3.53532 7.36438 3.3584 7.80975 3.3584Z" fill="#006EBC"/>
<path fill-rule="evenodd" clip-rule="evenodd" d="M12.5117 3.3584H14.8626V11.083C14.8626 11.5284 14.6857 11.9555 14.3708 12.2704C14.0559 12.5853 13.6287 12.7622 13.1834 12.7622H10.8324V5.03766C10.8324 4.59229 11.0093 4.16516 11.3242 3.85024C11.6392 3.53532 12.0663 3.3584 12.5117 3.3584Z" fill="#F00036"/>
<path fill-rule="evenodd" clip-rule="evenodd" d="M17.2137 3.3584H19.5646V11.083C19.5646 11.5284 19.3877 11.9555 19.0728 12.2704C18.7579 12.5853 18.3308 12.7622 17.8854 12.7622H15.5344V5.03766C15.5344 4.59229 15.7113 4.16516 16.0263 3.85024C16.3412 3.53532 16.7683 3.3584 17.2137 3.3584Z" fill="#2AB419"/>
<path d="M7.30943 9.7394C6.59743 9.7394 5.88408 9.5352 5.52539 9.07642L6.04932 8.62235C6.09499 9.38339 8.43051 9.45527 8.43051 8.49473V6.38088H9.64092V8.49473C9.64092 8.98373 9.25536 9.38272 8.58433 9.59095C8.27131 9.68767 7.66745 9.7394 7.30943 9.7394ZM12.761 9.7394C12.3083 9.7394 11.8287 9.66752 11.4411 9.49355C10.8043 9.20808 10.5598 8.68348 10.5679 8.01648C10.5759 7.33537 10.8607 6.8195 11.5539 6.56224C12.4399 6.2331 13.7994 6.38692 14.191 6.7436V7.39649C13.8068 7.04654 12.8758 6.79331 12.2303 7.08751C11.8985 7.23932 11.7353 7.70346 11.7306 8.06014C11.7266 8.43629 11.8952 8.90111 12.2303 9.06568C12.8705 9.37936 13.8357 9.09255 14.191 8.76946V9.44788C13.9506 9.61916 13.3494 9.7394 12.761 9.7394ZM18.5907 8.0017C18.8392 7.84385 18.9816 7.62084 18.9816 7.32664C18.9816 7.03243 18.9037 6.86518 18.7479 6.69591C18.6095 6.55687 18.3583 6.38088 17.9163 6.38088H15.5344V9.7394H17.9163C18.3838 9.7394 18.6532 9.5849 18.7996 9.46064C18.9897 9.29271 19.0857 9.10464 19.0857 8.8158C19.0857 8.5263 18.9816 8.2059 18.5907 8.0017ZM17.3104 7.81295H16.3512V6.84301H17.3554C17.9976 6.84301 17.9895 7.81295 17.3104 7.81295ZM17.5039 9.26181H16.3512V8.24553H17.5039C18.1662 8.24553 18.2313 9.26181 17.5039 9.26181Z" fill="white"/>
</g>
<defs>
<clipPath id="clip0_470_6613">
<rect width="25.5247" height="16.1209" fill="white" transform="translate(0.0852051)"/>
</clipPath>
</defs>
</svg>
