<svg width="27" height="17" viewBox="0 0 27 17" fill="none" xmlns="http://www.w3.org/2000/svg">
<g clip-path="url(#clip0_470_6622)">
<path d="M24.8962 16.1209H2.59561C1.7224 16.1209 0.983521 15.382 0.983521 14.5088V1.61209C0.983521 0.738873 1.7224 0 2.59561 0H24.8962C25.7694 0 26.5082 0.738873 26.5082 1.61209V14.5088C26.5082 15.382 25.7694 16.1209 24.8962 16.1209Z" fill="white"/>
<path opacity="0.25" d="M24.8962 16.1209H2.59561C1.7224 16.1209 0.983521 15.382 0.983521 14.5088V1.61209C0.983521 0.738873 1.7224 0 2.59561 0H24.829C25.7694 0 26.5082 0.738873 26.5082 1.61209V14.5088C26.5082 15.382 25.7694 16.1209 24.8962 16.1209ZM2.59561 0.671703C2.05825 0.671703 1.65522 1.07473 1.65522 1.61209V14.5088C1.65522 15.0462 2.05825 15.4492 2.59561 15.4492H24.829C25.3664 15.4492 25.8365 15.0462 25.8365 14.5088V1.61209C25.8365 1.07473 25.4335 0.671703 24.8962 0.671703H2.59561Z" fill="#A8AAAD"/>
<path d="M13.7459 13.5687C16.7878 13.5687 19.2538 11.1027 19.2538 8.0607C19.2538 5.01874 16.7878 2.55273 13.7459 2.55273C10.7039 2.55273 8.23792 5.01874 8.23792 8.0607C8.23792 11.1027 10.7039 13.5687 13.7459 13.5687Z" fill="#58595B"/>
<path d="M13.2086 5.03809L12.4025 8.06075L11.7308 8.32943L11.5293 9.06831L12.201 8.79962L11.7308 10.6132H16.3656L16.6342 9.5385H13.7459L14.1489 8.06075L14.955 7.79207L15.1565 7.0532L14.3504 7.38905L14.955 5.03809H13.2086Z" fill="white"/>
</g>
<defs>
<clipPath id="clip0_470_6622">
<rect width="25.5247" height="16.1209" fill="white" transform="translate(0.983521)"/>
</clipPath>
</defs>
</svg>
