<svg width="27" height="17" viewBox="0 0 27 17" fill="none" xmlns="http://www.w3.org/2000/svg">
<g clip-path="url(#clip0_470_6558)">
<path d="M23.9959 0H3.32466C3.23855 0 3.15229 0 3.06634 0.000456402C2.99377 0.00106494 2.92135 0.00182561 2.84879 0.00380335C2.69072 0.0080631 2.53128 0.0174954 2.37519 0.0454881C2.21866 0.0723077 2.06699 0.1223 1.92518 0.193819C1.64011 0.338814 1.40839 0.570527 1.2634 0.855601C1.19175 0.997461 1.14175 1.14925 1.11507 1.30592C1.08677 1.46216 1.07749 1.62144 1.07323 1.77936C1.07138 1.85186 1.07026 1.92438 1.06988 1.99691C1.06958 2.08271 1.06958 2.16882 1.06958 2.25508V13.8656C1.06958 13.9519 1.06958 14.0379 1.06988 14.1241C1.07034 14.1965 1.07125 14.2691 1.07323 14.3417C1.07749 14.4993 1.08692 14.6587 1.11507 14.8148C1.1417 14.9715 1.19165 15.1233 1.26325 15.2651C1.33523 15.4068 1.4292 15.5362 1.54165 15.6485C1.65391 15.761 1.78331 15.855 1.92503 15.9269C2.0691 16.0004 2.21667 16.0471 2.37535 16.0755C2.53128 16.1034 2.69072 16.1128 2.84879 16.1171C2.92135 16.1187 2.99377 16.1197 3.06634 16.1201C3.15229 16.1207 3.23855 16.1207 3.32466 16.1207H23.9959C24.0818 16.1207 24.1681 16.1207 24.254 16.1201C24.3265 16.1198 24.3989 16.1187 24.4717 16.1171C24.6295 16.1128 24.7889 16.1034 24.9453 16.0755C25.1019 16.0487 25.2536 15.9986 25.3953 15.9269C25.6803 15.7817 25.9119 15.5501 26.0571 15.2651C26.1306 15.1211 26.1772 14.9735 26.2053 14.8148C26.2336 14.6587 26.2427 14.4993 26.247 14.3417C26.249 14.2691 26.25 14.1965 26.2503 14.1241C26.2509 14.0379 26.2509 13.9519 26.2509 13.8656V2.25523C26.2509 2.16897 26.2509 2.08287 26.2503 1.99676C26.25 1.92428 26.2489 1.85181 26.247 1.77936C26.2427 1.62144 26.2336 1.46216 26.2053 1.30592C26.1788 1.14922 26.1289 0.997413 26.0571 0.855601C25.9121 0.570577 25.6804 0.338883 25.3953 0.193819C25.2535 0.122374 25.1019 0.0724337 24.9453 0.0456402C24.7889 0.0174954 24.6295 0.00821523 24.4717 0.00395548C24.3992 0.00211273 24.3266 0.000997022 24.254 0.000608536C24.1681 0 24.0818 0 23.9959 0Z" fill="black"/>
<path d="M23.9963 0.537109L24.2506 0.537566C24.3194 0.538022 24.3883 0.538783 24.4575 0.540608C24.5782 0.543955 24.719 0.550497 24.8505 0.574078C24.9646 0.594616 25.0604 0.625803 25.1523 0.672661C25.3362 0.766156 25.4856 0.91571 25.5789 1.0997C25.6255 1.19098 25.6565 1.28622 25.677 1.40138C25.7005 1.53131 25.707 1.67264 25.7102 1.79389C25.7122 1.86235 25.7131 1.93081 25.7132 2.00079C25.714 2.08553 25.714 2.17012 25.714 2.25501V13.8656C25.714 13.9505 25.714 14.035 25.7134 14.1215C25.7131 14.1899 25.7122 14.2584 25.7103 14.3268C25.707 14.4479 25.7005 14.5893 25.6767 14.7207C25.6595 14.8253 25.6264 14.9266 25.5786 15.0212C25.4851 15.2052 25.3355 15.3548 25.1514 15.4482C25.0601 15.4948 24.9646 15.526 24.8515 15.5463C24.7175 15.5702 24.5706 15.5768 24.46 15.5798C24.3904 15.5813 24.3212 15.5824 24.2502 15.5827C24.1657 15.5833 24.0808 15.5833 23.9963 15.5833H3.3217C3.23802 15.5833 3.15435 15.5833 3.06916 15.5827C3.00069 15.5824 2.93223 15.5815 2.86377 15.58C2.75059 15.5769 2.60363 15.5702 2.47066 15.5465C2.36553 15.529 2.26366 15.4956 2.16852 15.4476C2.07726 15.4012 1.99396 15.3407 1.92176 15.2681C1.84933 15.1958 1.78884 15.1124 1.74255 15.0212C1.69474 14.9261 1.6616 14.8242 1.64427 14.7192C1.62054 14.5879 1.61384 14.4472 1.6108 14.327C1.60908 14.2583 1.60807 14.1896 1.60776 14.1208L1.6073 13.919V2.20176L1.6076 2.00018C1.60792 1.93136 1.60893 1.86254 1.61065 1.79374C1.61399 1.67325 1.62054 1.53252 1.64442 1.40017C1.66179 1.29532 1.69492 1.19371 1.7427 1.09879C1.78895 1.00781 1.84919 0.924747 1.92222 0.851875C1.99459 0.779384 2.07798 0.718797 2.16928 0.672356C2.26419 0.624674 2.36574 0.591544 2.47051 0.574078C2.6021 0.550497 2.74313 0.543955 2.86393 0.540608C2.93269 0.538783 3.00161 0.538022 3.06992 0.537566L3.32504 0.537109H23.9963Z" fill="white"/>
<path d="M7.68897 5.44211C7.90256 5.17511 8.0474 4.81653 8.00921 4.4502C7.69673 4.46571 7.31548 4.65634 7.09458 4.92364C6.89635 5.15245 6.72094 5.52593 6.76658 5.87691C7.1174 5.90733 7.46792 5.70165 7.68897 5.44211Z" fill="black"/>
<path d="M8.00531 5.9454C7.49566 5.91498 7.06268 6.23446 6.81942 6.23446C6.57601 6.23446 6.20343 5.96062 5.80043 5.96807C5.27602 5.97568 4.7895 6.27234 4.52326 6.74395C3.97589 7.68718 4.37874 9.08682 4.91121 9.85509C5.16968 10.2354 5.48125 10.6538 5.89171 10.6387C6.27965 10.6235 6.43163 10.3877 6.90294 10.3877C7.3741 10.3877 7.51102 10.6387 7.92163 10.6311C8.3473 10.6235 8.61354 10.2508 8.87201 9.87046C9.16868 9.43688 9.28993 9.01851 9.29753 8.99569C9.28993 8.98808 8.47662 8.67606 8.46901 7.74043C8.4614 6.95694 9.10767 6.58421 9.1381 6.56124C8.77313 6.02147 8.20293 5.96062 8.00515 5.9454" fill="black"/>
<path d="M13.0845 4.88574C14.1917 4.88574 14.9629 5.649 14.9629 6.76019C14.9629 7.87533 14.1759 8.64254 13.0568 8.64254H11.8309V10.5923H10.9452V4.88574H13.0845ZM11.8309 7.89906H12.8472C13.6185 7.89906 14.0572 7.48389 14.0572 6.76414C14.0572 6.04455 13.6183 5.63318 12.8511 5.63318H11.8309V7.89906Z" fill="black"/>
<path d="M15.1826 9.40975C15.1826 8.67814 15.7402 8.25901 16.7683 8.19572L17.8716 8.12848V7.81204C17.8716 7.34955 17.5672 7.0964 17.0254 7.0964C16.5784 7.0964 16.2541 7.32567 16.1872 7.67755H15.3881C15.412 6.93818 16.1079 6.40039 17.0491 6.40039C18.0614 6.40039 18.7219 6.93027 18.7219 7.75286V10.5921H17.9034V9.90799H17.8836C17.6502 10.3548 17.136 10.6355 16.5784 10.6355C15.756 10.6355 15.1826 10.1453 15.1826 9.40975ZM17.8716 9.04204V8.72165L16.887 8.78494C16.3332 8.82054 16.0448 9.02607 16.0448 9.38587C16.0448 9.73395 16.3452 9.95941 16.8158 9.95941C17.4167 9.95941 17.8716 9.57573 17.8716 9.04204Z" fill="black"/>
<path d="M19.4745 12.1188V11.4348C19.5299 11.4426 19.6642 11.4505 19.7354 11.4505C20.1268 11.4505 20.3483 11.2847 20.4828 10.8573L20.5619 10.6043L19.0631 6.45215H19.9884L21.0325 9.82131H21.0523L22.0962 6.45215H22.9979L21.4437 10.8138C21.0877 11.8144 20.6804 12.1427 19.8185 12.1427C19.7512 12.1427 19.5337 12.1348 19.4745 12.1188Z" fill="black"/>
</g>
<defs>
<clipPath id="clip0_470_6558">
<rect width="25.5247" height="16.1209" fill="white" transform="translate(0.898315)"/>
</clipPath>
</defs>
</svg>
