<svg width="27" height="17" viewBox="0 0 27 17" fill="none" xmlns="http://www.w3.org/2000/svg">
<g clip-path="url(#clip0_470_6574)">
<path opacity="0.07" d="M24.2047 0H2.71018C2.17574 0 1.66319 0.212306 1.28528 0.590212C0.907374 0.968118 0.695068 1.48067 0.695068 2.01511L0.695068 14.1058C0.695068 14.6402 0.907374 15.1528 1.28528 15.5307C1.66319 15.9086 2.17574 16.1209 2.71018 16.1209H24.2047C24.7391 16.1209 25.2517 15.9086 25.6296 15.5307C26.0075 15.1528 26.2198 14.6402 26.2198 14.1058V2.01511C26.2198 1.48067 26.0075 0.968118 25.6296 0.590212C25.2517 0.212306 24.7391 0 24.2047 0V0Z" fill="black"/>
<path d="M24.2047 0.671875C24.561 0.671875 24.9027 0.813412 25.1547 1.06535C25.4066 1.31729 25.5481 1.65899 25.5481 2.01528V14.1059C25.5481 14.4622 25.4066 14.8039 25.1547 15.0559C24.9027 15.3078 24.561 15.4493 24.2047 15.4493H2.71023C2.35393 15.4493 2.01223 15.3078 1.7603 15.0559C1.50836 14.8039 1.36682 14.4622 1.36682 14.1059V2.01528C1.36682 1.65899 1.50836 1.31729 1.7603 1.06535C2.01223 0.813412 2.35393 0.671875 2.71023 0.671875H24.2047Z" fill="white"/>
<path d="M13.4575 13.4338C16.4253 13.4338 18.8311 11.0279 18.8311 8.06015C18.8311 5.09238 16.4253 2.68652 13.4575 2.68652C10.4897 2.68652 8.08386 5.09238 8.08386 8.06015C8.08386 11.0279 10.4897 13.4338 13.4575 13.4338Z" fill="#8DC451"/>
<path d="M14.9486 7.67709C15.0648 7.44454 15.1025 7.18058 15.056 6.92478C15.0523 6.74792 15.0101 6.574 14.9323 6.41514C14.8544 6.25629 14.7429 6.11633 14.6054 6.00505C14.4678 5.89376 14.3077 5.81382 14.1361 5.77081C13.9645 5.7278 13.7856 5.72275 13.6119 5.75602L13.4574 4.70145C13.4565 4.69261 13.454 4.68402 13.4498 4.67619C13.4456 4.66836 13.4399 4.66143 13.433 4.65581C13.4262 4.65019 13.4183 4.64598 13.4098 4.64344C13.4012 4.6409 13.3923 4.64007 13.3835 4.64099L12.9939 4.70145C12.9771 4.70617 12.9629 4.71721 12.9541 4.73225C12.9453 4.74729 12.9427 4.76514 12.9469 4.78205L13.1282 5.84334L12.6446 5.93066L12.4633 4.89624C12.4624 4.8874 12.4598 4.87882 12.4557 4.87099C12.4515 4.86315 12.4458 4.85622 12.4389 4.8506C12.4321 4.84498 12.4241 4.84078 12.4156 4.83823C12.4071 4.83569 12.3982 4.83486 12.3894 4.83579L12.0267 4.90296C12.0113 4.90761 11.9981 4.91763 11.9894 4.93118C11.9808 4.94474 11.9773 4.96094 11.9796 4.97684L12.1677 6.04485L11.1467 6.22621C11.13 6.23094 11.1157 6.24198 11.1069 6.25702C11.0982 6.27205 11.0956 6.28991 11.0997 6.30682L11.1669 6.71656C11.1677 6.72539 11.1703 6.73398 11.1745 6.74181C11.1786 6.74964 11.1843 6.75657 11.1912 6.76219C11.1981 6.76781 11.206 6.77202 11.2145 6.77456C11.223 6.7771 11.2319 6.77794 11.2408 6.77701H11.3012C11.3701 6.76958 11.4397 6.77588 11.5062 6.79554C11.5726 6.81521 11.6344 6.84785 11.6881 6.89158C11.7419 6.9353 11.7864 6.98925 11.8191 7.05029C11.8519 7.11133 11.8722 7.17826 11.8789 7.2472L12.2685 9.40337C12.2975 9.53136 12.2787 9.66556 12.2156 9.78064C12.1525 9.89572 12.0494 9.98373 11.9259 10.0281C11.9128 10.0321 11.9013 10.0401 11.8929 10.0509C11.8845 10.0617 11.8796 10.0748 11.8789 10.0885V10.5184C11.871 10.5378 11.871 10.5595 11.8789 10.5788C11.8872 10.583 11.8964 10.5851 11.9057 10.5851C11.9151 10.5851 11.9243 10.583 11.9326 10.5788L12.9402 10.4042L13.1215 11.4386C13.1248 11.4553 13.1342 11.47 13.1479 11.48C13.1616 11.49 13.1786 11.4944 13.1954 11.4924L13.5581 11.4252C13.5749 11.4205 13.5892 11.4094 13.5979 11.3944C13.6067 11.3794 13.6093 11.3615 13.6052 11.3446L13.4574 10.337L13.9343 10.2497L14.1156 11.2841C14.1189 11.3008 14.1283 11.3155 14.142 11.3255C14.1558 11.3355 14.1727 11.3399 14.1895 11.3379L14.5523 11.2774C14.569 11.2727 14.5833 11.2617 14.592 11.2466C14.6008 11.2316 14.6034 11.2137 14.5993 11.1968L14.4179 10.1624L14.6597 10.1221C14.8352 10.0954 15.0026 10.0305 15.1501 9.93185C15.2976 9.83321 15.4216 9.70331 15.5133 9.55137C15.605 9.39943 15.6621 9.22917 15.6806 9.05268C15.6991 8.87619 15.6785 8.69779 15.6203 8.53015C15.5889 8.34218 15.5111 8.16503 15.3937 8.01485C15.2764 7.86468 15.1234 7.74625 14.9486 7.67037V7.67709ZM12.7857 6.75686L13.5044 6.62923C13.6411 6.62331 13.7752 6.66725 13.8819 6.75288C13.9886 6.8385 14.0606 6.95997 14.0844 7.09469C14.1082 7.2294 14.0823 7.36819 14.0114 7.48521C13.9406 7.60223 13.8296 7.68952 13.6992 7.73083L12.9805 7.85845L12.7857 6.75686ZM14.2366 9.34292L13.276 9.51084L13.0812 8.40925L14.0418 8.24132C14.1784 8.2354 14.3126 8.27934 14.4193 8.36497C14.526 8.45059 14.598 8.57206 14.6218 8.70678C14.6456 8.84149 14.6197 8.98027 14.5488 9.09729C14.4779 9.21432 14.367 9.3016 14.2366 9.34292Z" fill="white"/>
</g>
<defs>
<clipPath id="clip0_470_6574">
<rect width="25.5247" height="16.1209" fill="white" transform="translate(0.695068)"/>
</clipPath>
</defs>
</svg>
