<svg width="26" height="17" viewBox="0 0 26 17" fill="none" xmlns="http://www.w3.org/2000/svg">
<g clip-path="url(#clip0_470_6602)">
<path d="M23.6964 0H2.20188C1.08896 0 0.186768 0.902195 0.186768 2.01511V14.1058C0.186768 15.2187 1.08896 16.1209 2.20188 16.1209H23.6964C24.8093 16.1209 25.7115 15.2187 25.7115 14.1058V2.01511C25.7115 0.902195 24.8093 0 23.6964 0Z" fill="black" fill-opacity="0.07"/>
<path d="M23.6964 0.671875H2.20193C1.45998 0.671875 0.858521 1.27334 0.858521 2.01528V14.1059C0.858521 14.8479 1.45998 15.4493 2.20193 15.4493H23.6964C24.4384 15.4493 25.0398 14.8479 25.0398 14.1059V2.01528C25.0398 1.27334 24.4384 0.671875 23.6964 0.671875Z" fill="white"/>
<path d="M12.7194 2.85449L12.6509 3.0869V9.82677L12.7194 9.89461L15.8475 8.04542L12.7194 2.85449Z" fill="#343434"/>
<path d="M12.7194 2.85449L9.59058 8.04541L12.7194 9.89529V6.62409V2.85449Z" fill="#8C8C8C"/>
<path d="M12.7194 10.4875L12.6804 10.5345V12.9359L12.7194 13.048L15.8495 8.63965L12.7194 10.4875Z" fill="#3C3C3B"/>
<path d="M12.7194 13.048V10.4875L9.59058 8.63965L12.7194 13.048Z" fill="#8C8C8C"/>
<path d="M12.7194 9.89424L15.8475 8.04504L12.7194 6.62305V9.89424Z" fill="#141414"/>
<path d="M9.59058 8.04504L12.7194 9.89424V6.62305L9.59058 8.04504Z" fill="#393939"/>
</g>
<defs>
<clipPath id="clip0_470_6602">
<rect width="25.5247" height="16.1209" fill="white" transform="translate(0.186768)"/>
</clipPath>
</defs>
</svg>
