<svg width="27" height="17" viewBox="0 0 27 17" fill="none" xmlns="http://www.w3.org/2000/svg">
<g clip-path="url(#clip0_470_6639)">
<path opacity="0.07" d="M24.1882 0H2.6937C1.5518 0 0.678589 0.873214 0.678589 2.01511V14.1058C0.678589 15.2477 1.61897 16.1209 2.6937 16.1209H24.1882C25.3301 16.1209 26.2033 15.2477 26.2033 14.1058V2.01511C26.2033 0.873214 25.2629 0 24.1882 0Z" fill="black"/>
<path d="M24.1883 0.671875C24.9271 0.671875 25.5317 1.27641 25.5317 2.01528V14.1059C25.5317 14.8448 24.9271 15.4493 24.1883 15.4493H2.69375C1.95487 15.4493 1.35034 14.8448 1.35034 14.1059V2.01528C1.35034 1.27641 1.95487 0.671875 2.69375 0.671875H24.1883Z" fill="white"/>
<path d="M13.4409 13.5687C16.4829 13.5687 18.9489 11.1027 18.9489 8.0607C18.9489 5.01873 16.4829 2.55273 13.4409 2.55273C10.399 2.55273 7.93298 5.01873 7.93298 8.0607C7.93298 11.1027 10.399 13.5687 13.4409 13.5687Z" fill="#1652F0"/>
<path d="M14.771 8.76861C14.771 8.07339 14.3485 7.83897 13.5303 7.72612C12.9258 7.6388 12.8083 7.49774 12.8083 7.21563C12.8083 6.93351 13.0131 6.75753 13.4047 6.75753C13.7607 6.75753 13.9669 6.88112 14.0516 7.16861C14.0605 7.19998 14.0793 7.22763 14.1052 7.24747C14.1311 7.26731 14.1627 7.27829 14.1953 7.27877H14.5083C14.5288 7.27905 14.549 7.27483 14.5677 7.26643C14.5863 7.25803 14.6029 7.24564 14.6162 7.23014C14.6295 7.21464 14.6393 7.1964 14.6448 7.17672C14.6503 7.15703 14.6514 7.13638 14.6481 7.11622C14.5486 6.66282 14.243 6.38943 13.7634 6.30413V5.82588C13.7634 5.78644 13.7478 5.74862 13.72 5.72067C13.6922 5.69272 13.6544 5.67694 13.615 5.67676H13.3161C13.2765 5.67676 13.2386 5.69247 13.2106 5.72043C13.1827 5.7484 13.1669 5.78633 13.1669 5.82588V6.28734C12.5718 6.3713 12.195 6.76424 12.195 7.26937C12.195 7.92092 12.5926 8.17482 13.4229 8.287C13.9871 8.37969 14.1483 8.50194 14.1483 8.82234C14.1483 9.14342 13.8756 9.35836 13.49 9.35836C12.9708 9.35836 12.7948 9.13133 12.7364 8.83645C12.7296 8.80254 12.7113 8.772 12.6847 8.74998C12.658 8.72796 12.6245 8.7158 12.59 8.71554H12.2507C12.2305 8.71527 12.2104 8.71944 12.1919 8.72778C12.1735 8.73611 12.157 8.7484 12.1438 8.76378C12.1306 8.77916 12.121 8.79724 12.1156 8.81677C12.1101 8.83629 12.109 8.85677 12.1124 8.87675C12.1997 9.37381 12.5181 9.73653 13.1669 9.82385V10.2954C13.1669 10.3349 13.1827 10.3729 13.2106 10.4008C13.2386 10.4288 13.2765 10.4445 13.3161 10.4445H13.615C13.6544 10.4443 13.6922 10.4285 13.72 10.4006C13.7478 10.3726 13.7634 10.3348 13.7634 10.2954V9.8252C14.3794 9.72713 14.771 9.30194 14.771 8.76861Z" fill="white"/>
<path d="M12.3125 11.1485C11.6797 10.9169 11.1334 10.4964 10.7475 9.94408C10.3615 9.39175 10.1546 8.73419 10.1546 8.06037C10.1546 7.38656 10.3615 6.729 10.7475 6.17667C11.1334 5.62434 11.6797 5.2039 12.3125 4.97222C12.353 4.95436 12.3878 4.92553 12.4128 4.88898C12.4379 4.85242 12.4522 4.8096 12.4542 4.76533V4.45769C12.4569 4.43052 12.4524 4.40312 12.4411 4.37825C12.4299 4.35337 12.4122 4.33191 12.39 4.31604C12.3678 4.30016 12.3418 4.29043 12.3146 4.28782C12.2874 4.28521 12.2601 4.28982 12.2352 4.30119C11.4378 4.5554 10.7419 5.05661 10.248 5.73236C9.75419 6.40812 9.48804 7.2234 9.48804 8.06037C9.48804 8.89734 9.75419 9.71263 10.248 10.3884C10.7419 11.0641 11.4378 11.5653 12.2352 11.8196C12.2601 11.8309 12.2874 11.8355 12.3146 11.8329C12.3418 11.8303 12.3678 11.8206 12.39 11.8047C12.4122 11.7888 12.4299 11.7674 12.4411 11.7425C12.4524 11.7176 12.4569 11.6902 12.4542 11.6631V11.3568C12.4524 11.3124 12.4382 11.2695 12.4133 11.2329C12.3884 11.1962 12.3537 11.1672 12.3131 11.1492L12.3125 11.1485ZM14.646 4.30186C14.6211 4.29071 14.5938 4.28627 14.5667 4.28897C14.5396 4.29167 14.5137 4.30142 14.4916 4.31725C14.4694 4.33308 14.4518 4.35444 14.4405 4.3792C14.4291 4.40396 14.4245 4.43125 14.427 4.45837V4.76533C14.4288 4.80964 14.4431 4.85253 14.4682 4.88911C14.4932 4.9257 14.5281 4.95449 14.5687 4.97222C15.2017 5.20377 15.7482 5.6242 16.1344 6.17661C16.5205 6.72902 16.7276 7.38673 16.7276 8.06071C16.7276 8.73469 16.5205 9.3924 16.1344 9.94481C15.7482 10.4972 15.2017 10.9177 14.5687 11.1492C14.5268 11.1652 14.4907 11.1936 14.4655 11.2308C14.4403 11.2679 14.4271 11.3119 14.4277 11.3568V11.6637C14.4252 11.6908 14.4298 11.7181 14.4411 11.7429C14.4525 11.7676 14.4701 11.789 14.4922 11.8048C14.5144 11.8207 14.5403 11.8304 14.5674 11.8331C14.5945 11.8358 14.6218 11.8314 14.6466 11.8202C15.4441 11.566 16.14 11.0648 16.6338 10.3891C17.1277 9.7133 17.3938 8.89802 17.3938 8.06105C17.3938 7.22408 17.1277 6.40879 16.6338 5.73304C16.14 5.05728 15.4441 4.55607 14.6466 4.30186H14.646Z" fill="white"/>
</g>
<defs>
<clipPath id="clip0_470_6639">
<rect width="25.5247" height="16.1209" fill="white" transform="translate(0.678589)"/>
</clipPath>
</defs>
</svg>
