<svg width="26" height="17" viewBox="0 0 26 17" fill="none" xmlns="http://www.w3.org/2000/svg">
<g clip-path="url(#clip0_470_6553)">
<path opacity="0.07" d="M23.5096 0H2.01511C0.873214 0 0 0.873214 0 2.01511V14.1058C0 15.2477 0.940385 16.1209 2.01511 16.1209H23.5096C24.6515 16.1209 25.5247 15.2477 25.5247 14.1058V2.01511C25.5247 0.873214 24.5843 0 23.5096 0Z" fill="black"/>
<path d="M23.5097 0.671875C24.2485 0.671875 24.8531 1.27641 24.8531 2.01528V14.1059C24.8531 14.8448 24.2485 15.4493 23.5097 15.4493H2.01516C1.27629 15.4493 0.671753 14.8448 0.671753 14.1059V2.01528C0.671753 1.27641 1.27629 0.671875 2.01516 0.671875H23.5097Z" fill="#006FCF"/>
<path d="M6.0258 6.89745L6.5457 8.15756H5.50994L6.0258 6.89745ZM16.8234 6.94984H14.8238V7.50534H16.7912V8.33758H14.8278V8.95689H16.8275V9.45328L18.2226 7.9453L16.8275 6.37352L16.8234 6.94984ZM7.37727 5.37805H10.0607L10.6565 6.6778L11.2087 5.37402H18.1742L18.8983 6.17335L19.6473 5.37402H22.8466L20.4829 7.96142L22.8224 10.5327H19.5754L18.8513 9.73338L18.0956 10.5327H6.73714L6.40532 9.73338H5.64629L5.3138 10.5327H2.68677L4.89398 5.37402H7.19793L7.37727 5.37805ZM13.1962 6.10215H11.6923L10.6847 8.47729L9.59322 6.10215H8.1007V9.33304L6.71699 6.10215H5.37828L3.77829 9.80458H4.82278L5.15461 9.00525H6.89835L7.23017 9.80458H9.0572V7.16143L10.2334 9.80861H11.0327L12.2014 7.16949V9.80928H13.1808L13.1969 6.10148L13.1962 6.10215ZM19.4699 7.96142L21.17 6.10215H19.9462L18.8708 7.26151L17.831 6.10215H13.872V9.80861H17.7746L18.8587 8.64119L19.8985 9.80861H21.1579L19.4706 7.96142H19.4699Z" fill="white"/>
</g>
<defs>
<clipPath id="clip0_470_6553">
<rect width="25.5247" height="16.1209" fill="white"/>
</clipPath>
</defs>
</svg>
