<svg width="27" height="17" viewBox="0 0 27 17" fill="none" xmlns="http://www.w3.org/2000/svg">
<g clip-path="url(#clip0_470_6633)">
<path opacity="0.07" d="M24.2899 0H2.79538C1.65349 0 0.780273 0.873214 0.780273 2.01511V14.1058C0.780273 15.2477 1.72066 16.1209 2.79538 16.1209H24.2899C25.4318 16.1209 26.305 15.2477 26.305 14.1058V2.01511C26.305 0.873214 25.3646 0 24.2899 0Z" fill="black"/>
<path d="M24.2899 0.671875C25.0288 0.671875 25.6333 1.27641 25.6333 2.01528V14.1059C25.6333 14.8448 25.0288 15.4493 24.2899 15.4493H2.79543C2.05656 15.4493 1.45203 14.8448 1.45203 14.1059V2.01528C1.45203 1.27641 2.05656 0.671875 2.79543 0.671875H24.2899Z" fill="white"/>
<path d="M16.8339 5.57502C16.9683 4.90332 16.8339 4.43312 16.4309 4.0301C16.0279 3.55991 15.289 3.3584 14.3486 3.3584H11.5947C11.3931 3.3584 11.2588 3.49274 11.1916 3.69425L10.1841 10.4785C10.1841 10.6128 10.2513 10.7471 10.3856 10.7471H12.1992L12.4679 8.46334L13.6769 6.9856L16.8339 5.57502Z" fill="#003087"/>
<path d="M16.834 5.5752L16.6996 5.70954C16.3638 7.5903 15.2219 8.26201 13.6098 8.26201H12.8709C12.6694 8.26201 12.5351 8.39635 12.4679 8.59786L12.0649 11.2175L11.9305 11.8892C11.9305 12.0235 11.9977 12.1579 12.1321 12.1579H13.5426C13.7441 12.1579 13.8785 12.0235 13.8785 11.8892V11.822L14.1472 10.2099V10.1428C14.1472 10.0084 14.3487 9.8741 14.483 9.8741H14.6845C16.0951 9.8741 17.1698 9.33673 17.4385 7.72465C17.5728 7.05294 17.5057 6.51558 17.1698 6.11256C17.1027 5.77671 16.9683 5.64237 16.834 5.5752Z" fill="#3086C8"/>
<path d="M16.4309 5.44077C16.3638 5.3736 16.2966 5.3736 16.2294 5.3736C16.1623 5.3736 16.0951 5.3736 16.0279 5.30643C15.8264 5.23926 15.5577 5.23926 15.2891 5.23926H13.2739C13.2068 5.23926 13.1396 5.23926 13.1396 5.30643C13.0053 5.3736 12.9381 5.44077 12.9381 5.57511L12.4679 8.5306V8.59777C12.4679 8.39626 12.6694 8.26192 12.8709 8.26192H13.7441C15.4234 8.26192 16.4981 7.59022 16.834 5.70945V5.57511C16.7668 5.50794 16.6325 5.44077 16.4981 5.44077H16.4309Z" fill="#012169"/>
</g>
<defs>
<clipPath id="clip0_470_6633">
<rect width="25.5247" height="16.1209" fill="white" transform="translate(0.780273)"/>
</clipPath>
</defs>
</svg>
