<svg width="27" height="17" viewBox="0 0 27 17" fill="none" xmlns="http://www.w3.org/2000/svg">
<g clip-path="url(#clip0_470_6645)">
<path d="M24.0865 0H2.59201C1.4791 0 0.576904 0.902195 0.576904 2.01511V14.1058C0.576904 15.2187 1.4791 16.1209 2.59201 16.1209H24.0865C25.1994 16.1209 26.1016 15.2187 26.1016 14.1058V2.01511C26.1016 0.902195 25.1994 0 24.0865 0Z" fill="black" fill-opacity="0.07"/>
<path fill-rule="evenodd" clip-rule="evenodd" d="M24.0866 0.671875C24.8254 0.671875 25.43 1.27641 25.43 2.01528V14.1059C25.43 14.8448 24.8254 15.4493 24.0866 15.4493H2.59206C1.85319 15.4493 1.24866 14.8448 1.24866 14.1059V2.01528C1.24866 1.27641 1.85319 0.671875 2.59206 0.671875H24.0866Z" fill="#3D95CE"/>
<path d="M17.1512 5.61528C17.1512 7.67338 15.4337 10.3474 14.0392 12.2248H10.8553L9.57776 4.41293L12.366 4.14291L13.0411 9.70125C13.6725 8.64936 14.451 6.99765 14.451 5.8712C14.451 5.25458 14.3475 4.83476 14.1863 4.48883L16.7254 3.96289C17.0189 4.45861 17.1512 4.96977 17.1512 5.61528Z" fill="white"/>
</g>
<defs>
<clipPath id="clip0_470_6645">
<rect width="25.5247" height="16.1209" fill="white" transform="translate(0.576904)"/>
</clipPath>
</defs>
</svg>
