<svg width="26" height="17" viewBox="0 0 26 17" fill="none" xmlns="http://www.w3.org/2000/svg">
<g clip-path="url(#clip0_470_6588)">
<path opacity="0.07" d="M23.8998 0H2.40525C1.26335 0 0.390137 0.873214 0.390137 2.01511V14.1058C0.390137 15.2477 1.33052 16.1209 2.40525 16.1209H23.8998C25.0416 16.1209 25.9149 15.2477 25.9149 14.1058V2.01511C25.9149 0.873214 24.9745 0 23.8998 0Z" fill="black"/>
<path d="M23.8998 0.671875C24.6387 0.671875 25.2432 1.27641 25.2432 2.01528V14.1059C25.2432 14.8448 24.6387 15.4493 23.8998 15.4493H2.4053C1.66642 15.4493 1.06189 14.8448 1.06189 14.1059V2.01528C1.06189 1.27641 1.66642 0.671875 2.4053 0.671875H23.8998Z" fill="white"/>
<path d="M2.78809 4.80912H1.73352V8.50349H2.78809C3.34561 8.50349 3.74863 8.36915 4.10463 8.08031C4.52781 7.73103 4.77634 7.2071 4.77634 6.66302C4.76962 5.56814 3.95686 4.80912 2.78809 4.80912ZM3.63444 7.58997C3.40606 7.79148 3.11723 7.88552 2.64704 7.88552H2.45224V5.44052H2.64704C3.11051 5.44052 3.39263 5.52113 3.63444 5.73607C3.88297 5.95773 4.03075 6.3003 4.03075 6.6563C4.03075 7.01231 3.88297 7.36831 3.63444 7.58997ZM5.10547 4.80912H5.82419V8.50349H5.10547V4.80912ZM7.58406 6.22641C7.15417 6.06521 7.02654 5.95773 7.02654 5.76294C7.02654 5.52784 7.25492 5.3532 7.56391 5.3532C7.77885 5.3532 7.96021 5.44052 8.14157 5.65547L8.51772 5.16512C8.20874 4.89644 7.8393 4.75538 7.42956 4.75538C6.77801 4.75538 6.27423 5.21214 6.27423 5.81667C6.27423 6.32717 6.50933 6.58913 7.18103 6.83095C7.46315 6.9317 7.60421 6.99887 7.67809 7.03917C7.81915 7.13321 7.89304 7.26755 7.89304 7.42205C7.89304 7.72431 7.65794 7.94597 7.33553 7.94597C6.99296 7.94597 6.71756 7.77133 6.54963 7.45563L6.08616 7.90567C6.41529 8.39602 6.81831 8.61096 7.36239 8.61096C8.10798 8.61096 8.63863 8.1139 8.63863 7.39518C8.65206 6.79736 8.40353 6.52868 7.58406 6.22641ZM8.87373 6.66302C8.87373 7.75118 9.72679 8.59081 10.8217 8.59081C11.1306 8.59081 11.3993 8.53036 11.7217 8.37586V7.52952C11.4329 7.81835 11.1777 7.93254 10.8553 7.93254C10.1298 7.93254 9.6126 7.40861 9.6126 6.6563C9.6126 5.9443 10.1432 5.38679 10.8217 5.38679C11.1642 5.38679 11.4262 5.50769 11.7217 5.80324V4.95689C11.406 4.79569 11.1441 4.72852 10.8351 4.72852C9.75366 4.72852 8.87373 5.5883 8.87373 6.66302ZM17.4447 7.29442L16.4573 4.80912H15.6714L17.2364 8.59753H17.626L19.218 4.80912H18.4388L17.4447 7.29442ZM19.5471 8.50349H21.5891V7.8788H20.2658V6.88468H21.542V6.26H20.2658V5.44052H21.5891V4.80912H19.5471V8.50349ZM24.4438 5.904C24.4438 5.21214 23.9669 4.81584 23.134 4.81584H22.066V8.51021H22.7847V7.02574H22.8787L23.8729 8.51021H24.7595L23.5975 6.95185C24.1415 6.83766 24.4438 6.46823 24.4438 5.904ZM22.9929 6.51525H22.7847V5.3935H23.0064C23.4564 5.3935 23.6982 5.58158 23.6982 5.9443C23.6982 6.31374 23.4564 6.51525 22.9929 6.51525Z" fill="#231F20"/>
<path d="M13.9317 8.63772C14.4538 8.63772 14.9546 8.4303 15.3238 8.06108C15.693 7.69187 15.9004 7.19111 15.9004 6.66896C15.9004 6.14681 15.693 5.64605 15.3238 5.27683C14.9546 4.90762 14.4538 4.7002 13.9317 4.7002C13.4095 4.7002 12.9087 4.90762 12.5395 5.27683C12.1703 5.64605 11.9629 6.14681 11.9629 6.66896C11.9629 7.19111 12.1703 7.69187 12.5395 8.06108C12.9087 8.4303 13.4095 8.63772 13.9317 8.63772Z" fill="url(#paint0_linear_470_6588)"/>
<path opacity="0.65" d="M13.9317 8.63772C14.4538 8.63772 14.9546 8.4303 15.3238 8.06108C15.693 7.69187 15.9004 7.19111 15.9004 6.66896C15.9004 6.14681 15.693 5.64605 15.3238 5.27683C14.9546 4.90762 14.4538 4.7002 13.9317 4.7002C13.4095 4.7002 12.9087 4.90762 12.5395 5.27683C12.1703 5.64605 11.9629 6.14681 11.9629 6.66896C11.9629 7.19111 12.1703 7.69187 12.5395 8.06108C12.9087 8.4303 13.4095 8.63772 13.9317 8.63772Z" fill="url(#paint1_linear_470_6588)"/>
<path d="M24.9539 5.04196C24.9539 4.97492 24.9069 4.94141 24.8332 4.94141H24.726V5.26316H24.8064V5.1358L24.9002 5.26316H24.9941L24.8868 5.1291C24.9271 5.1224 24.9539 5.08888 24.9539 5.04196ZM24.8198 5.08888H24.8064V5.00174H24.8198C24.86 5.00174 24.8801 5.01514 24.8801 5.04196C24.8801 5.07547 24.86 5.08888 24.8198 5.08888Z" fill="#231F20"/>
<path d="M24.8468 4.82031C24.6923 4.82031 24.5647 4.94794 24.5647 5.10243C24.5647 5.25692 24.6923 5.38454 24.8468 5.38454C25.0013 5.38454 25.1289 5.25692 25.1289 5.10243C25.1289 4.94794 25.0013 4.82031 24.8468 4.82031ZM24.8468 5.33752C24.7259 5.33752 24.6184 5.23677 24.6184 5.10243C24.6184 4.9748 24.7192 4.86733 24.8468 4.86733C24.9677 4.86733 25.0685 4.9748 25.0685 5.10243C25.0685 5.23005 24.9677 5.33752 24.8468 5.33752Z" fill="#231F20"/>
<path d="M25.2431 8.72168C25.2431 8.72168 18.5865 13.349 6.41931 15.4495H23.899C24.2535 15.4495 24.5936 15.3094 24.8452 15.0598C25.0968 14.8102 25.2396 14.4712 25.2425 14.1168L25.2586 12.0883L25.2431 8.72235V8.72168Z" fill="#F48120"/>
</g>
<defs>
<linearGradient id="paint0_linear_470_6588" x1="14.9372" y1="8.24477" x2="13.577" y2="6.1148" gradientUnits="userSpaceOnUse">
<stop stop-color="#F89F20"/>
<stop offset="0.25" stop-color="#F79A20"/>
<stop offset="0.533" stop-color="#F68D20"/>
<stop offset="0.62" stop-color="#F58720"/>
<stop offset="0.723" stop-color="#F48120"/>
<stop offset="1" stop-color="#F37521"/>
</linearGradient>
<linearGradient id="paint1_linear_470_6588" x1="14.7229" y1="8.21589" x2="12.7347" y2="4.32942" gradientUnits="userSpaceOnUse">
<stop stop-color="#F58720"/>
<stop offset="0.359" stop-color="#E16F27"/>
<stop offset="0.703" stop-color="#D4602C"/>
<stop offset="0.982" stop-color="#D05B2E"/>
</linearGradient>
<clipPath id="clip0_470_6588">
<rect width="25.5247" height="16.1209" fill="white" transform="translate(0.390137)"/>
</clipPath>
</defs>
</svg>
