<svg width="80" height="81" viewBox="0 0 80 81" fill="none" xmlns="http://www.w3.org/2000/svg">
<path d="M60.7507 39.5653L31.4174 19.5653C31.008 19.288 30.48 19.2573 30.0427 19.488C29.6067 19.7186 29.3334 20.172 29.3334 20.6666V60.6666C29.3334 61.1613 29.6067 61.6146 30.044 61.8453C30.2387 61.9493 30.4534 62 30.6667 62C30.9294 62 31.192 61.9213 31.4174 61.768L60.7507 41.768C61.1147 41.52 61.3334 41.108 61.3334 40.6666C61.3334 40.2253 61.1147 39.8133 60.7507 39.5653ZM32 58.1426V23.1906L57.6334 40.6666L32 58.1426Z" fill="white"/>
<path d="M40 0.666992C17.944 0.666992 0 18.611 0 40.667C0 62.723 17.944 80.667 40 80.667C62.056 80.667 80 62.723 80 40.667C80 18.611 62.056 0.666992 40 0.666992ZM40 78.0003C19.4147 78.0003 2.66667 61.2523 2.66667 40.667C2.66667 20.0817 19.4147 3.33366 40 3.33366C60.5853 3.33366 77.3333 20.0817 77.3333 40.667C77.3333 61.2523 60.5853 78.0003 40 78.0003Z" fill="white"/>
</svg>
