<svg width="24" height="25" viewBox="0 0 24 25" fill="none" xmlns="http://www.w3.org/2000/svg">
<g clip-path="url(#clip0_470_6760)">
<path d="M8 23.667C9.10457 23.667 10 22.7716 10 21.667C10 20.5624 9.10457 19.667 8 19.667C6.89543 19.667 6 20.5624 6 21.667C6 22.7716 6.89543 23.667 8 23.667Z" stroke="white" stroke-width="1.59292" stroke-linecap="round" stroke-linejoin="round"/>
<path d="M20 23.667C21.1046 23.667 22 22.7716 22 21.667C22 20.5624 21.1046 19.667 20 19.667C18.8954 19.667 18 20.5624 18 21.667C18 22.7716 18.8954 23.667 20 23.667Z" stroke="white" stroke-width="1.59292" stroke-linecap="round" stroke-linejoin="round"/>
<path d="M5.67 6.66699H23L21.32 15.057C21.2286 15.5174 20.9781 15.931 20.6125 16.2253C20.2468 16.5196 19.7893 16.676 19.32 16.667H8.75C8.26168 16.6711 7.78873 16.4965 7.42031 16.1759C7.05189 15.8554 6.81347 15.4112 6.75 14.927L5.23 3.40699C5.16697 2.92623 4.93142 2.48474 4.5672 2.16466C4.20298 1.84458 3.73488 1.66773 3.25 1.66699H1" stroke="white" stroke-width="1.59292" stroke-linecap="round" stroke-linejoin="round"/>
</g>
<defs>
<clipPath id="clip0_470_6760">
<rect width="24" height="24" fill="white" transform="translate(0 0.666992)"/>
</clipPath>
</defs>
</svg>
