<svg width="90" height="12" viewBox="0 0 90 12" fill="none" xmlns="http://www.w3.org/2000/svg">
<path d="M6.48367 3.26186C5.64367 3.26186 5.00004 3.51823 4.55277 4.03095C4.10549 4.54368 3.88186 5.26914 3.88186 6.20732C3.88186 7.15641 4.12731 7.88732 4.61822 8.40004C5.12004 8.91277 5.79095 9.16914 6.63095 9.16914C7.07822 9.16914 7.45458 9.10914 7.76004 8.98914C8.0764 8.86914 8.3764 8.73277 8.66004 8.58004C8.84549 8.73277 8.98731 8.91823 9.08549 9.13641C9.19458 9.34368 9.24913 9.58914 9.24913 9.87277C9.24913 10.32 8.99822 10.7019 8.4964 11.0182C8.00549 11.3237 7.25277 11.4764 6.23822 11.4764C5.50731 11.4764 4.82004 11.3728 4.1764 11.1655C3.53277 10.9582 2.97095 10.6419 2.49095 10.2164C2.01095 9.78004 1.62913 9.23459 1.34549 8.58004C1.07277 7.91459 0.936401 7.12368 0.936401 6.20732C0.936401 5.35641 1.06731 4.60913 1.32913 3.9655C1.60186 3.31095 1.96731 2.76004 2.42549 2.31277C2.89458 1.8655 3.44004 1.52732 4.06186 1.29823C4.68367 1.06914 5.34913 0.95459 6.05822 0.95459C7.06186 0.95459 7.8364 1.11823 8.38186 1.4455C8.93822 1.77277 9.2164 2.19277 9.2164 2.7055C9.2164 2.98914 9.14549 3.23459 9.00367 3.44186C8.86186 3.64914 8.69822 3.81277 8.51277 3.93277C8.22913 3.74732 7.92367 3.58914 7.5964 3.45823C7.28004 3.32732 6.90913 3.26186 6.48367 3.26186Z" fill="white"/>
<path d="M13.1263 1.56004C13.3117 1.45095 13.5899 1.34732 13.9608 1.24913C14.3427 1.15095 14.7245 1.10186 15.1063 1.10186C15.6517 1.10186 16.1317 1.18368 16.5463 1.34732C16.9717 1.50004 17.2445 1.7455 17.3645 2.08368C17.5608 2.65095 17.7736 3.31095 18.0027 4.06368C18.2317 4.81641 18.4608 5.59641 18.6899 6.40368C18.919 7.20004 19.1427 7.99095 19.3608 8.77641C19.579 9.55095 19.7699 10.2382 19.9336 10.8382C19.8027 10.991 19.6063 11.111 19.3445 11.1982C19.0827 11.2964 18.7717 11.3455 18.4117 11.3455C18.1499 11.3455 17.9263 11.3237 17.7408 11.28C17.5663 11.2364 17.419 11.171 17.299 11.0837C17.1899 10.9964 17.0972 10.8819 17.0208 10.74C16.9554 10.5982 16.8954 10.4346 16.8408 10.2491L16.5463 9.12004H13.5845C13.4972 9.44732 13.4099 9.7855 13.3227 10.1346C13.2354 10.4837 13.1481 10.8219 13.0608 11.1491C12.9081 11.2037 12.7445 11.2473 12.5699 11.28C12.4063 11.3237 12.2045 11.3455 11.9645 11.3455C11.4081 11.3455 10.9936 11.2528 10.7208 11.0673C10.459 10.871 10.3281 10.6037 10.3281 10.2655C10.3281 10.1128 10.3499 9.96004 10.3936 9.80732C10.4372 9.65459 10.4863 9.47459 10.5408 9.26732C10.6172 8.97277 10.7208 8.60732 10.8517 8.17095C10.9936 7.73459 11.1463 7.2655 11.3099 6.76368C11.4736 6.25095 11.6481 5.72732 11.8336 5.19277C12.019 4.65823 12.1936 4.15641 12.3572 3.68732C12.5208 3.20732 12.6681 2.78186 12.799 2.41095C12.9408 2.04004 13.0499 1.75641 13.1263 1.56004ZM15.0899 3.67095C14.9372 4.12914 14.7627 4.64186 14.5663 5.20914C14.3808 5.7655 14.2117 6.33277 14.059 6.91095H16.0881C15.9354 6.32186 15.7772 5.74913 15.6136 5.19277C15.4608 4.6255 15.319 4.11823 15.1881 3.67095H15.0899Z" fill="white"/>
<path d="M22.7964 11.231C22.3273 11.231 21.9564 11.0946 21.6837 10.8219C21.411 10.5491 21.2746 10.1782 21.2746 9.70914V1.24913C21.3946 1.22732 21.5855 1.20004 21.8473 1.16732C22.1092 1.12368 22.3601 1.10186 22.6001 1.10186C22.851 1.10186 23.0692 1.12368 23.2546 1.16732C23.451 1.20004 23.6146 1.2655 23.7455 1.36368C23.8764 1.46186 23.9746 1.59823 24.0401 1.77277C24.1055 1.94732 24.1382 2.17641 24.1382 2.46004V8.92368H27.8855C27.9619 9.04368 28.0328 9.20732 28.0982 9.41459C28.1637 9.61095 28.1964 9.81823 28.1964 10.0364C28.1964 10.4728 28.1037 10.7837 27.9182 10.9691C27.7328 11.1437 27.4873 11.231 27.1819 11.231H22.7964Z" fill="white"/>
<path d="M32.5278 11.1164C32.4078 11.1491 32.2169 11.1819 31.9551 11.2146C31.7042 11.2473 31.4533 11.2637 31.2024 11.2637C30.9514 11.2637 30.7278 11.2419 30.5314 11.1982C30.346 11.1655 30.1878 11.1 30.0569 11.0019C29.926 10.9037 29.8278 10.7673 29.7624 10.5928C29.6969 10.4182 29.6642 10.1891 29.6642 9.9055V1.2655C29.7842 1.24368 29.9751 1.21641 30.2369 1.18368C30.4987 1.14004 30.7496 1.11823 30.9896 1.11823C31.2405 1.11823 31.4587 1.14004 31.6442 1.18368C31.8405 1.21641 32.0042 1.28186 32.1351 1.38004C32.266 1.47823 32.3642 1.61459 32.4296 1.78914C32.4951 1.96368 32.5278 2.19277 32.5278 2.47641V11.1164Z" fill="white"/>
<path d="M41.6209 1.2655C41.6972 1.3855 41.7627 1.54913 41.8172 1.75641C41.8827 1.95277 41.9154 2.16004 41.9154 2.37823C41.9154 2.80368 41.8227 3.10914 41.6372 3.29459C41.4627 3.46914 41.2227 3.55641 40.9172 3.55641H37.4809V5.4055H41.0645C41.1518 5.5255 41.2227 5.68368 41.2772 5.88004C41.3427 6.07641 41.3754 6.28368 41.3754 6.50186C41.3754 6.91641 41.2827 7.21641 41.0972 7.40186C40.9227 7.57641 40.6827 7.66368 40.3772 7.66368H37.5136V11.1164C37.3936 11.1491 37.2027 11.1819 36.9409 11.2146C36.69 11.2473 36.4391 11.2637 36.1882 11.2637C35.9372 11.2637 35.7136 11.2419 35.5172 11.1982C35.3318 11.1655 35.1736 11.1 35.0427 11.0019C34.9118 10.9037 34.8136 10.7673 34.7482 10.5928C34.6827 10.4182 34.65 10.1891 34.65 9.9055V2.78732C34.65 2.31823 34.7863 1.94732 35.0591 1.67459C35.3318 1.40186 35.7027 1.2655 36.1718 1.2655H41.6209Z" fill="white"/>
<path d="M42.7723 6.20732C42.7723 5.35641 42.9032 4.60368 43.1651 3.94913C43.4378 3.29459 43.8033 2.74913 44.2614 2.31277C44.7305 1.8655 45.276 1.52732 45.8978 1.29823C46.5305 1.06914 47.2123 0.95459 47.9433 0.95459C48.6742 0.95459 49.3505 1.06914 49.9723 1.29823C50.6051 1.52732 51.156 1.8655 51.6251 2.31277C52.0942 2.74913 52.4596 3.29459 52.7214 3.94913C52.9942 4.60368 53.1305 5.35641 53.1305 6.20732C53.1305 7.05823 52.9996 7.81641 52.7378 8.48186C52.476 9.13641 52.1105 9.68732 51.6414 10.1346C51.1833 10.571 50.6378 10.9037 50.0051 11.1328C49.3723 11.3619 48.6851 11.4764 47.9433 11.4764C47.2014 11.4764 46.5142 11.3619 45.8814 11.1328C45.2487 10.8928 44.7032 10.5491 44.2451 10.1019C43.7869 9.65459 43.4269 9.10368 43.1651 8.44914C42.9032 7.79459 42.7723 7.04732 42.7723 6.20732ZM45.7178 6.20732C45.7178 7.20004 45.9196 7.94186 46.3233 8.43277C46.7269 8.92368 47.2669 9.16914 47.9433 9.16914C48.6305 9.16914 49.176 8.92368 49.5796 8.43277C49.9833 7.94186 50.1851 7.20004 50.1851 6.20732C50.1851 5.2255 49.9833 4.48914 49.5796 3.99823C49.1869 3.50732 48.6469 3.26186 47.9596 3.26186C47.2833 3.26186 46.7378 3.50732 46.3233 3.99823C45.9196 4.47823 45.7178 5.21459 45.7178 6.20732Z" fill="white"/>
<path d="M57.6162 7.97459V11.1164C57.4962 11.1491 57.3053 11.1819 57.0435 11.2146C56.7926 11.2473 56.5417 11.2637 56.2908 11.2637C56.0398 11.2637 55.8162 11.2419 55.6198 11.1982C55.4344 11.1655 55.2762 11.1 55.1453 11.0019C55.0253 10.9037 54.9326 10.7673 54.8671 10.5928C54.8017 10.4182 54.7689 10.1891 54.7689 9.9055V2.19823C54.7689 1.96913 54.8289 1.79459 54.9489 1.67459C55.0798 1.54368 55.2544 1.44004 55.4726 1.36368C55.8435 1.23277 56.2744 1.14004 56.7653 1.0855C57.2562 1.02004 57.7798 0.987317 58.3362 0.987317C59.8417 0.987317 60.9762 1.30368 61.7398 1.93641C62.5035 2.56914 62.8853 3.4255 62.8853 4.5055C62.8853 5.18186 62.7107 5.76004 62.3617 6.24004C62.0126 6.72004 61.598 7.09095 61.118 7.35277C61.5108 7.88732 61.898 8.38914 62.2798 8.85823C62.6617 9.32732 62.9617 9.75277 63.1798 10.1346C63.0707 10.5164 62.8689 10.811 62.5744 11.0182C62.2907 11.2146 61.9689 11.3128 61.6089 11.3128C61.3689 11.3128 61.1617 11.2855 60.9871 11.231C60.8126 11.1764 60.6598 11.1 60.5289 11.0019C60.398 10.9037 60.278 10.7837 60.1689 10.6419C60.0598 10.5 59.9562 10.3473 59.858 10.1837L58.4835 7.97459H57.6162ZM58.6471 5.79823C59.0617 5.79823 59.3889 5.69459 59.6289 5.48732C59.8689 5.26914 59.9889 4.95277 59.9889 4.53823C59.9889 4.12368 59.8526 3.81277 59.5798 3.6055C59.318 3.38732 58.898 3.27823 58.3198 3.27823C58.1562 3.27823 58.0253 3.28368 57.9271 3.29459C57.8289 3.3055 57.7198 3.32186 57.5998 3.34368V5.79823H58.6471Z" fill="white"/>
<path d="M73.7242 10.8382C73.5714 10.991 73.3478 11.1055 73.0532 11.1819C72.7696 11.2691 72.426 11.3128 72.0223 11.3128C71.6187 11.3128 71.2369 11.2528 70.8769 11.1328C70.5169 11.0128 70.2223 10.7237 69.9932 10.2655L68.3732 6.96004C68.2096 6.62186 68.0623 6.3055 67.9314 6.01095C67.8005 5.7055 67.6587 5.35641 67.506 4.96368L67.4078 4.98004C67.4514 5.56914 67.4733 6.16914 67.4733 6.78004C67.4842 7.39095 67.4896 7.99095 67.4896 8.58004V11.1164C67.3696 11.1491 67.1842 11.1819 66.9332 11.2146C66.6932 11.2473 66.4532 11.2637 66.2132 11.2637C65.9732 11.2637 65.7605 11.2473 65.5751 11.2146C65.3896 11.1819 65.2369 11.1164 65.1169 11.0182C64.9969 10.92 64.9042 10.7891 64.8387 10.6255C64.7733 10.451 64.7405 10.2273 64.7405 9.95459V1.77277C64.8933 1.55459 65.1278 1.39095 65.4442 1.28186C65.7605 1.17277 66.0987 1.11823 66.4587 1.11823C66.8623 1.11823 67.2442 1.18368 67.6042 1.31459C67.9751 1.43459 68.2696 1.71823 68.4878 2.1655L70.1242 5.47095C70.2878 5.80914 70.4351 6.13095 70.566 6.43641C70.6969 6.73095 70.8387 7.07459 70.9914 7.46732L71.0732 7.45095C71.0296 6.86186 71.0023 6.27277 70.9914 5.68368C70.9805 5.09459 70.9751 4.5055 70.9751 3.91641V1.2655C71.0951 1.23277 71.2751 1.20004 71.5151 1.16732C71.766 1.13459 72.0114 1.11823 72.2514 1.11823C72.7314 1.11823 73.0969 1.2055 73.3478 1.38004C73.5987 1.54368 73.7242 1.89277 73.7242 2.42732V10.8382Z" fill="white"/>
<path d="M78.7103 11.1164C78.5903 11.1491 78.3994 11.1819 78.1376 11.2146C77.8867 11.2473 77.6358 11.2637 77.3849 11.2637C77.134 11.2637 76.9103 11.2419 76.714 11.1982C76.5285 11.1655 76.3703 11.1 76.2394 11.0019C76.1085 10.9037 76.0103 10.7673 75.9449 10.5928C75.8794 10.4182 75.8467 10.1891 75.8467 9.9055V1.2655C75.9667 1.24368 76.1576 1.21641 76.4194 1.18368C76.6812 1.14004 76.9322 1.11823 77.1722 1.11823C77.4231 1.11823 77.6412 1.14004 77.8267 1.18368C78.0231 1.21641 78.1867 1.28186 78.3176 1.38004C78.4485 1.47823 78.5467 1.61459 78.6122 1.78914C78.6776 1.96368 78.7103 2.19277 78.7103 2.47641V11.1164Z" fill="white"/>
<path d="M82.9434 1.56004C83.1289 1.45095 83.407 1.34732 83.778 1.24913C84.1598 1.15095 84.5416 1.10186 84.9234 1.10186C85.4689 1.10186 85.9489 1.18368 86.3634 1.34732C86.7889 1.50004 87.0616 1.7455 87.1816 2.08368C87.3779 2.65095 87.5907 3.31095 87.8198 4.06368C88.0489 4.81641 88.278 5.59641 88.507 6.40368C88.7361 7.20004 88.9598 7.99095 89.178 8.77641C89.3961 9.55095 89.587 10.2382 89.7507 10.8382C89.6198 10.991 89.4234 11.111 89.1616 11.1982C88.8998 11.2964 88.5889 11.3455 88.2289 11.3455C87.967 11.3455 87.7434 11.3237 87.5579 11.28C87.3834 11.2364 87.2361 11.171 87.1161 11.0837C87.007 10.9964 86.9143 10.8819 86.838 10.74C86.7725 10.5982 86.7125 10.4346 86.658 10.2491L86.3634 9.12004H83.4016C83.3143 9.44732 83.227 9.7855 83.1398 10.1346C83.0525 10.4837 82.9652 10.8219 82.8779 11.1491C82.7252 11.2037 82.5616 11.2473 82.387 11.28C82.2234 11.3237 82.0216 11.3455 81.7816 11.3455C81.2252 11.3455 80.8107 11.2528 80.538 11.0673C80.2761 10.871 80.1452 10.6037 80.1452 10.2655C80.1452 10.1128 80.167 9.96004 80.2107 9.80732C80.2543 9.65459 80.3034 9.47459 80.358 9.26732C80.4343 8.97277 80.538 8.60732 80.6689 8.17095C80.8107 7.73459 80.9634 7.2655 81.127 6.76368C81.2907 6.25095 81.4652 5.72732 81.6507 5.19277C81.8361 4.65823 82.0107 4.15641 82.1743 3.68732C82.338 3.20732 82.4852 2.78186 82.6161 2.41095C82.758 2.04004 82.867 1.75641 82.9434 1.56004ZM84.907 3.67095C84.7543 4.12914 84.5798 4.64186 84.3834 5.20914C84.198 5.7655 84.0289 6.33277 83.8761 6.91095H85.9052C85.7525 6.32186 85.5943 5.74913 85.4307 5.19277C85.278 4.6255 85.1361 4.11823 85.0052 3.67095H84.907Z" fill="white"/>
</svg>
