<svg width="122" height="13" viewBox="0 0 122 13" fill="none" xmlns="http://www.w3.org/2000/svg">
<path d="M8.48348 0.012006C5.63051 0.012006 0.551715 0.360157 0.551715 3.07334C0.551715 7.02306 9.09835 7.05907 9.09835 9.31605C9.09835 10.0004 8.3851 10.6126 6.78645 10.6126C4.54834 10.6126 3.28172 10.4806 1.21577 10.1324C0.34266 9.98835 0.0475246 11.6691 0.773066 11.8492C2.12577 12.1973 4.24091 12.4974 8.05308 12.4974C10.9061 12.4974 15.8742 11.9932 15.8742 9.26803C15.8742 5.31831 7.38902 5.2943 7.38902 3.19339C7.38902 2.50909 8.10227 1.89682 9.70092 1.89682H15.0994C16.1939 1.89682 16.1939 0.012006 15.0994 0.012006H8.48348V0.012006ZM28.7126 0.012006C25.6136 0.012006 20.3873 0.192083 20.3873 4.3699V8.18756C20.3873 12.3774 25.6136 12.5455 28.7126 12.5455C31.996 12.5455 33.7545 12.2453 35.1072 11.8972C35.845 11.7171 35.5376 10.0244 34.6645 10.1804C32.5985 10.5286 31.3442 10.6606 29.0938 10.6606C27.0032 10.6606 26.4499 10.1924 26.4499 8.94389V7.49126C26.4499 6.99904 26.5728 6.903 27.1139 6.903H31.3565C32.1804 6.903 32.1804 5.2943 31.3565 5.2943H27.1139C26.5728 5.2943 26.4499 5.19826 26.4499 4.70605V3.62558C26.4499 2.36503 27.0032 1.90883 29.0938 1.90883H34.4431C35.5376 1.90883 35.5376 0.0240082 34.4431 0.0240082H28.7126V0.012006ZM47.8349 0.012006C44.736 0.012006 39.5096 0.192083 39.5096 4.3699V8.35564C39.5096 12.2453 44.5146 12.4494 47.6135 12.4494C50.2452 12.4494 55.988 12.3174 55.988 8.67978V7.49126C55.988 6.00261 54.9919 5.60644 53.0121 5.60644H48.6588C48.0685 5.60644 48.0685 7.21514 48.6588 7.21514H49.9869C50.528 7.21514 50.5895 7.32318 50.5895 7.80339V8.82384C50.5895 10.0844 49.3967 10.7567 47.6135 10.7567C45.8304 10.7567 45.191 10.0724 45.191 8.82384V3.60157C45.191 2.34102 46.1256 1.88482 48.2161 1.88482H53.5654C54.6599 1.88482 54.6599 0 53.5654 0H47.8349V0.012006ZM59.3452 0.012006C58.595 0.012006 58.6073 0.312134 58.7918 0.9244L61.9891 10.3965C62.4195 11.561 63.3541 12.3294 65.1864 12.3294C67.0187 12.3294 67.8918 11.549 68.3222 10.5046C68.3222 10.5046 69.5888 6.80696 69.8102 6.14667C69.9578 5.69047 70.3267 5.69047 70.4743 6.14667C70.6587 6.71092 71.913 10.3965 71.913 10.3965C72.5279 11.6211 73.1797 12.3294 75.0489 12.3294C77.2501 12.3294 78.2093 11.453 78.5782 10.3965C78.8118 9.73624 80.5089 4.08177 81.5541 0.816354C81.7632 0.180077 81.7017 0.012006 81.1114 0.012006H79.1808C78.5782 2.00487 76.7213 7.99548 76.6475 8.24759C76.5122 8.70378 76.1679 8.69178 75.9835 8.24759C75.8605 7.93545 73.7822 2.38904 73.4502 1.52466C73.1059 0.660285 72.159 0.0240082 71.0768 0.0240082C70.1053 0.0240082 69.1953 0.540233 68.8756 1.52466C68.5559 2.50909 66.8097 7.98347 66.7236 8.24759C66.5883 8.70378 66.2071 8.70378 66.0595 8.24759C65.9611 7.97147 64.0674 1.92084 63.4648 0.012006H59.3452V0.012006ZM93.2366 0.012006C90.236 0.012006 85.4647 -0.0120046 85.4647 3.61357V11.1408C85.4647 11.8972 86.0427 12.3294 87.9979 12.3294C89.9532 12.3294 90.5312 11.8011 90.5312 11.1408V7.69535C90.5312 7.20313 90.6542 7.10709 91.1952 7.10709H95.1673C95.7083 7.10709 95.8313 7.21514 95.8313 7.69535V11.1408C95.8313 11.8011 96.4093 12.3294 98.3646 12.3294C100.32 12.3294 100.898 11.9092 100.898 11.1408V3.61357C100.898 -0.0120046 96.2371 0.012006 93.2366 0.012006ZM104.206 0.012006C103.714 0.012006 103.505 0.37216 103.874 0.816354C105.116 2.32901 108.03 5.89456 108.227 6.14667C108.473 6.4468 108.83 6.86699 108.83 7.33519V11.1529C108.83 11.8131 109.469 12.3414 111.424 12.3414C113.38 12.3414 114.068 11.9212 114.068 11.1529V7.01105C114.068 6.51884 114.4 6.25472 114.671 5.93058C114.868 5.67847 117.622 2.37703 118.913 0.816354C119.282 0.360155 119.086 0.012006 118.581 0.012006H116.269C116.269 0.012006 113.306 3.80565 113.072 4.10578C112.839 4.40591 112.371 4.39391 112.138 4.10578C111.904 3.81766 109.051 0.012006 109.051 0.012006H104.206V0.012006ZM120.844 0.012006C120.205 0.012006 119.688 0.52823 119.688 1.1405C119.688 1.75276 120.205 2.26899 120.844 2.26899C121.471 2.26899 122 1.75276 122 1.1405C122 0.516225 121.484 0.012006 120.844 0.012006ZM120.844 0.276119C121.311 0.276119 121.729 0.684298 121.729 1.1405C121.729 1.59669 121.311 1.94484 120.844 1.94484C120.377 1.94484 120.02 1.59669 120.02 1.1405C120.02 0.684298 120.377 0.276119 120.844 0.276119ZM120.352 0.708307C120.315 0.708307 120.303 0.720312 120.303 0.756328V1.45263C120.303 1.50065 120.34 1.50065 120.463 1.50065C120.598 1.50065 120.623 1.48865 120.623 1.45263V0.864374C120.623 0.828358 120.635 0.816354 120.672 0.816354H120.832C120.942 0.816354 120.992 0.876379 120.992 0.9244C120.992 1.00844 120.856 1.03245 120.721 1.03245H120.672C120.61 1.03245 120.623 1.21253 120.672 1.24854C120.807 1.35659 120.93 1.46464 121.004 1.51266C121.029 1.53667 121.078 1.51266 121.115 1.51266H121.447C121.484 1.51266 121.484 1.48865 121.447 1.46464L121.004 1.1405C121.115 1.1405 121.447 1.1525 121.447 0.9244C121.447 0.768332 121.238 0.708307 120.955 0.708307H120.352V0.708307ZM93.2366 1.62071C95.2656 1.62071 95.8313 2.14893 95.8313 3.39748V4.89813C95.8313 5.42636 95.7206 5.48638 95.2288 5.48638H91.2075C90.6664 5.48638 90.5435 5.37834 90.5435 4.89813V3.39748C90.5435 2.14893 91.2075 1.62071 93.2366 1.62071Z" fill="white"/>
</svg>
