<svg width="37" height="37" viewBox="0 0 37 37" fill="none" xmlns="http://www.w3.org/2000/svg">
<g clip-path="url(#clip0_470_6918)">
<path d="M35.8431 3.36853L33.6041 1.14492C32.1445 -0.304731 29.6844 -0.389282 28.12 0.957026L24.1864 4.34412C24.1362 4.38748 24.0926 4.43878 24.0584 4.49515L20.2281 10.8314L17.7687 11.6451C17.5606 11.7138 17.4042 11.885 17.3533 12.096C17.3023 12.3071 17.3664 12.5304 17.5213 12.6843L24.2235 19.34C24.3436 19.4592 24.5044 19.5235 24.6703 19.5235C24.7191 19.5235 24.7671 19.5177 24.8151 19.5069C25.0283 19.457 25.2 19.3009 25.2691 19.0942L26.0892 16.6509L32.5622 12.7688C32.6189 12.7349 32.6706 12.6915 32.7135 12.6417L36.0432 8.80941C37.3929 7.25931 37.3027 4.81818 35.8431 3.36853ZM35.0885 7.99064L31.8244 11.747L25.2379 15.697C25.1091 15.7744 25.0123 15.8943 24.965 16.036L24.3945 17.7349L22.884 16.2347L22.8832 16.234L20.6494 14.0154L20.6487 14.0147L19.1381 12.5145L20.8488 11.9479C20.9921 11.9002 21.1129 11.8041 21.1908 11.6755L25.0894 5.22648L28.948 1.90515C30.0213 0.980874 31.7094 1.03796 32.7106 2.03234L34.9495 4.25595C35.9515 5.25105 36.0133 6.92617 35.0885 7.99064Z" fill="#009EFF"/>
<path d="M34.0517 25.2152C32.1962 23.3731 29.4661 22.7321 26.9922 23.5292L13.5638 10.1926C14.3656 7.73555 13.7209 5.02342 11.8662 3.18137C9.91179 1.24032 6.98599 0.632563 4.41164 1.63489C4.21299 1.71221 4.06747 1.88348 4.02381 2.09088C3.98015 2.29829 4.04491 2.51292 4.19553 2.66323L8.21496 6.65518L5.53437 9.31745L1.51494 5.32477C1.36432 5.17518 1.14749 5.11087 0.938655 5.15422C0.729826 5.19758 0.557377 5.34212 0.479521 5.5394C-0.528975 8.09544 0.0822344 11.0012 2.03665 12.943C3.89211 14.7851 6.62218 15.4261 9.09612 14.6297L14.1175 19.6168L7.86424 25.8273L3.88701 28.0357C3.77641 28.0971 3.68692 28.1903 3.63016 28.3031L1.8431 31.8528C1.72159 32.0941 1.76888 32.3861 1.9617 32.5769L4.19553 34.7954C4.31704 34.9161 4.47858 34.979 4.64229 34.979C4.73834 34.979 4.83512 34.9573 4.92461 34.9125L8.49874 33.1377C8.61225 33.0813 8.70611 32.9924 8.76796 32.8826L10.9916 28.9325L17.2449 22.7227L22.5245 27.9663C21.7227 30.4234 22.3674 33.1348 24.2228 34.9775C25.5515 36.2971 27.3298 37.0003 29.1409 37.0003C29.9937 37.0003 30.8537 36.8442 31.6774 36.524C31.876 36.4467 32.0216 36.2754 32.0652 36.068C32.1089 35.8606 32.0441 35.646 31.8935 35.4957L27.8741 31.5037L30.5547 28.8415L34.5741 32.8334C34.7247 32.983 34.9416 33.0473 35.1504 33.004C35.3592 32.9606 35.5317 32.8161 35.6095 32.6188C36.6173 30.062 36.0061 27.1562 34.0517 25.2152ZM10.0362 28.1065C9.99474 28.1477 9.95982 28.1932 9.93144 28.2438L7.76019 32.1014L4.76745 33.5879L3.17757 32.0089L4.67431 29.0366L8.5584 26.8802C8.60934 26.852 8.6559 26.8173 8.69665 26.7761L15.0118 20.5042L16.3521 21.8353L10.0362 28.1065ZM34.716 31.1995L31.0014 27.5103C30.7548 27.2653 30.3546 27.2653 30.1079 27.5103L26.5338 31.06C26.4152 31.1778 26.349 31.3375 26.349 31.5037C26.349 31.6699 26.4159 31.8296 26.5338 31.9474L30.2483 35.6366C28.4067 36.0001 26.4748 35.4386 25.1164 34.0901C23.517 32.5017 23.0171 30.1242 23.8423 28.0321C23.934 27.8001 23.8787 27.5356 23.7011 27.3593L9.70733 13.4612C9.58654 13.3412 9.42501 13.2776 9.26056 13.2776C9.18344 13.2776 9.10485 13.2921 9.02991 13.321C6.92414 14.1405 4.52951 13.644 2.93018 12.0556C1.57169 10.7064 1.00633 8.78774 1.37305 6.9587L5.0876 10.6479C5.33427 10.8928 5.73447 10.8928 5.98113 10.6479L9.55525 7.09817C9.80192 6.85319 9.80192 6.45573 9.55525 6.21075L5.8407 2.52159C7.68233 2.15737 9.61419 2.7196 10.9727 4.06807C12.572 5.65647 13.0719 8.03401 12.2468 10.1261C12.1551 10.3581 12.2104 10.6226 12.3879 10.7989L26.3817 24.697C26.5593 24.8734 26.8256 24.9283 27.0591 24.8372C29.1656 24.0177 31.5595 24.5142 33.1589 26.1026C34.5166 27.4518 35.082 29.3704 34.716 31.1995Z" fill="#999999"/>
</g>
<defs>
<clipPath id="clip0_470_6918">
<rect width="37" height="37" fill="white"/>
</clipPath>
</defs>
</svg>
