<svg width="38" height="37" viewBox="0 0 38 37" fill="none" xmlns="http://www.w3.org/2000/svg">
<g clip-path="url(#clip0_470_6932)">
<path d="M34.9252 27.0335C34.7804 26.6369 34.3448 26.4345 33.9529 26.5807L26.0805 29.5146C25.6879 29.6608 25.4875 30.1008 25.6322 30.4966C25.7451 30.8054 26.0345 30.9966 26.3425 30.9966C26.4294 30.9966 26.5177 30.9816 26.6045 30.9493L34.4769 28.0154C34.8695 27.8693 35.0699 27.4293 34.9252 27.0335Z" fill="#009EFF"/>
<path d="M24.8885 30.7737C24.7438 30.3772 24.3081 30.1748 23.9162 30.3209L23.583 30.4454C23.1911 30.5915 22.99 31.0316 23.1347 31.4273C23.2475 31.7362 23.537 31.9273 23.845 31.9273C23.9318 31.9273 24.0201 31.9123 24.107 31.8801L24.4402 31.7557C24.8321 31.6087 25.0332 31.1695 24.8885 30.7737Z" fill="#009EFF"/>
<path d="M34.9252 23.9173C34.7804 23.5207 34.3448 23.3183 33.9529 23.4645L27.7319 25.783C27.3393 25.9292 27.1389 26.3692 27.2836 26.765C27.3964 27.0738 27.6859 27.2649 27.9939 27.2649C28.0807 27.2649 28.169 27.25 28.2559 27.2177L34.4776 24.8992C34.8695 24.7531 35.0699 24.3138 34.9252 23.9173Z" fill="#009EFF"/>
<path d="M34.9252 20.8352C34.7804 20.4387 34.3448 20.2363 33.9529 20.3825L27.7319 22.701C27.3393 22.8471 27.1389 23.2871 27.2836 23.6829C27.3964 23.9918 27.6859 24.1829 27.9939 24.1829C28.0807 24.1829 28.169 24.1679 28.2559 24.1357L34.4776 21.8172C34.8695 21.671 35.0699 21.231 34.9252 20.8352Z" fill="#009EFF"/>
<path d="M37.505 6.84605L19.262 0.0472245C19.0928 -0.0157415 18.9072 -0.0157415 18.738 0.0472245L0.495039 6.84605V6.8468C0.435664 6.86929 0.377773 6.89852 0.324336 6.936C0.120977 7.07842 0 7.31305 0 7.56341V29.4366C0 29.7567 0.197422 30.043 0.495039 30.1539L18.738 36.9528C18.8234 36.9843 18.9117 37 19 37C19.0891 37 19.1781 36.9835 19.262 36.952V36.9528L37.505 30.1539C37.8026 30.043 38 29.7567 38 29.4366V7.56341C38 7.24259 37.8026 6.95699 37.505 6.84605ZM18.243 35.138L1.51406 28.9036V8.66007L4.9207 9.92988V19.1934C4.9207 19.5135 5.11812 19.7998 5.41574 19.9107L13.5909 22.9571C13.6763 22.9886 13.7646 23.0043 13.8529 23.0043C14.0058 23.0043 14.1572 22.9578 14.2856 22.8671C14.489 22.724 14.61 22.4901 14.61 22.2397V13.5407L18.2437 14.8944L18.243 35.138ZM13.0959 12.9762V21.1423L6.43477 18.6597V10.4936L13.0959 12.9762ZM7.86422 9.39092L13.8529 7.15938L19.8416 9.39092L13.8529 11.6225L7.86422 9.39092ZM19 13.5467L16.0312 12.4403L22.2901 10.1075C22.5877 9.9966 22.7852 9.71025 22.7852 9.39017C22.7852 9.0701 22.5877 8.78375 22.2901 8.67281L14.1149 5.62646C13.9457 5.56349 13.7602 5.56349 13.5909 5.62646L5.66883 8.57911L2.94352 7.56341L19 1.5794L35.0565 7.56266L19 13.5467ZM36.4859 28.9036L19.757 35.138V14.8944L36.4859 8.66007V28.9036Z" fill="#999999"/>
</g>
<defs>
<clipPath id="clip0_470_6932">
<rect width="38" height="37" fill="white"/>
</clipPath>
</defs>
</svg>
