<svg width="25" height="35" viewBox="0 0 25 35" fill="none" xmlns="http://www.w3.org/2000/svg">
<g clip-path="url(#clip0_470_6921)">
<path d="M24.3126 0H0.687406C0.307985 0 0 0.312402 0 0.697266V34.3027C0 34.6876 0.307985 35 0.687406 35H18.6516C18.8336 35 19.0088 34.9262 19.1375 34.7956L24.7985 29.0534C24.9272 28.9229 25 28.7451 25 28.5605V0.697266C25 0.312402 24.692 0 24.3126 0ZM19.3377 32.6211L19.335 29.2537L22.6547 29.2571L19.3377 32.6211ZM23.6252 27.8633L18.6476 27.8585H18.6469C18.4649 27.8585 18.2897 27.9323 18.161 28.0629C18.0323 28.1941 17.9595 28.3712 17.9595 28.5564L17.9642 33.6055H1.37481V1.39453H23.6252V27.8633Z" fill="#999999"/>
<path d="M7.04252 25.1553C5.31389 25.1553 3.90808 26.5812 3.90808 28.3347C3.90808 30.0881 5.31457 31.5141 7.04252 31.5141C8.77114 31.5141 10.177 30.0881 10.177 28.3347C10.1776 26.5812 8.77114 25.1553 7.04252 25.1553ZM7.04252 30.1202C6.07206 30.1202 5.28222 29.319 5.28222 28.3347C5.28222 27.3503 6.07139 26.5498 7.04252 26.5498C8.01365 26.5498 8.80281 27.3503 8.80281 28.3347C8.80281 29.319 8.01297 30.1202 7.04252 30.1202Z" fill="#00A0FF"/>
<path d="M16.0051 27.749H12.2244C11.845 27.749 11.537 28.0614 11.537 28.4463C11.537 28.8312 11.845 29.1436 12.2244 29.1436H16.0051C16.3845 29.1436 16.6925 28.8312 16.6925 28.4463C16.6925 28.0614 16.3852 27.749 16.0051 27.749Z" fill="#999999"/>
<path d="M6.79447 4.18262H4.80166C4.42224 4.18262 4.11426 4.49502 4.11426 4.87988C4.11426 5.26475 4.42224 5.57715 4.80166 5.57715H6.79514C7.17456 5.57715 7.48255 5.26475 7.48255 4.87988C7.48255 4.49502 7.17456 4.18262 6.79447 4.18262Z" fill="#999999"/>
<path d="M20.4732 4.18262H14.4934C14.114 4.18262 13.806 4.49502 13.806 4.87988C13.806 5.26475 14.114 5.57715 14.4934 5.57715H20.4732C20.8526 5.57715 21.1606 5.26475 21.1606 4.87988C21.1606 4.49502 20.8526 4.18262 20.4732 4.18262Z" fill="#00A0FF"/>
<path d="M20.4732 7.18066H10.3003C9.9209 7.18066 9.61292 7.49307 9.61292 7.87793C9.61292 8.26279 9.9209 8.5752 10.3003 8.5752H20.4732C20.8527 8.5752 21.1606 8.26279 21.1606 7.87793C21.1606 7.49307 20.8527 7.18066 20.4732 7.18066Z" fill="#00A0FF"/>
<path d="M20.5077 12.6885H4.49246C4.11304 12.6885 3.80505 13.0009 3.80505 13.3857C3.80505 13.7706 4.11304 14.083 4.49246 14.083H20.5077C20.8871 14.083 21.1951 13.7706 21.1951 13.3857C21.1951 13.0009 20.8871 12.6885 20.5077 12.6885Z" fill="#999999"/>
<path d="M20.5077 15.0596H4.49246C4.11304 15.0596 3.80505 15.372 3.80505 15.7568C3.80505 16.1417 4.11304 16.4541 4.49246 16.4541H20.5077C20.8871 16.4541 21.1951 16.1417 21.1951 15.7568C21.1951 15.372 20.8871 15.0596 20.5077 15.0596Z" fill="#999999"/>
<path d="M20.5077 17.6396H4.49246C4.11304 17.6396 3.80505 17.952 3.80505 18.3369C3.80505 18.7218 4.11304 19.0342 4.49246 19.0342H20.5077C20.8871 19.0342 21.1951 18.7218 21.1951 18.3369C21.1951 17.952 20.8871 17.6396 20.5077 17.6396Z" fill="#999999"/>
<path d="M20.5076 20.0098H20.1295C19.7501 20.0098 19.4421 20.3222 19.4421 20.707C19.4421 21.0919 19.7501 21.4043 20.1295 21.4043H20.5076C20.887 21.4043 21.195 21.0919 21.195 20.707C21.195 20.3215 20.887 20.0098 20.5076 20.0098Z" fill="#999999"/>
<path d="M17.7237 20.0098H4.49246C4.11304 20.0098 3.80505 20.3222 3.80505 20.707C3.80505 21.0919 4.11304 21.4043 4.49246 21.4043H17.7243C18.1038 21.4043 18.4118 21.0919 18.4118 20.707C18.4111 20.3215 18.1031 20.0098 17.7237 20.0098Z" fill="#999999"/>
</g>
<defs>
<clipPath id="clip0_470_6921">
<rect width="25" height="35" fill="white"/>
</clipPath>
</defs>
</svg>
