<svg width="17" height="17" viewBox="0 0 17 17" fill="none" xmlns="http://www.w3.org/2000/svg">
<path d="M4.42043 4.42043L3.19663 3.19663M8.5 1V2.73077V1ZM8.5 14.2692V16V14.2692ZM13.8034 3.19663L12.5796 4.42043L13.8034 3.19663ZM4.42043 12.5796L3.19663 13.8034L4.42043 12.5796ZM16 8.5H14.2692H16ZM2.73077 8.5H1H2.73077ZM13.8034 13.8034L12.5796 12.5796L13.8034 13.8034Z" stroke="#009EFF" stroke-miterlimit="10" stroke-linecap="round" stroke-linejoin="round"/>
<path d="M8.49998 11.2271C10.0062 11.2271 11.2273 10.0061 11.2273 8.49984C11.2273 6.99361 10.0062 5.77257 8.49998 5.77257C6.99375 5.77257 5.77271 6.99361 5.77271 8.49984C5.77271 10.0061 6.99375 11.2271 8.49998 11.2271Z" stroke="#009EFF" stroke-miterlimit="10" stroke-linecap="round" stroke-linejoin="round"/>
</svg>
