<svg width="17" height="17" viewBox="0 0 17 17" fill="none" xmlns="http://www.w3.org/2000/svg">
<path d="M13.6422 6.98963L13.6434 6.9919C13.6608 7.02606 13.6684 7.06435 13.6655 7.10258C13.6626 7.14058 13.6493 7.17705 13.6271 7.20801C13.627 7.2082 13.6268 7.20838 13.6267 7.20857L7.96168 14.998C7.96162 14.998 7.96157 14.9981 7.96152 14.9982C7.94214 15.0246 7.9168 15.0461 7.88755 15.0609C7.8594 15.0752 7.82839 15.0828 7.79686 15.0833C7.77209 15.0825 7.74753 15.0785 7.72377 15.0715C7.68337 15.0576 7.64821 15.0316 7.62307 14.997C7.59725 14.9614 7.58333 14.9186 7.5833 14.8747V10.625V10.125H7.0833H3.55568C3.51787 10.122 3.48155 10.1087 3.45068 10.0865C3.41774 10.0628 3.39244 10.03 3.37787 9.99218L3.37083 9.97389L3.36239 9.9562C3.34657 9.92308 3.33978 9.88638 3.3427 9.84979C3.34552 9.81458 3.35724 9.78069 3.37673 9.75129L9.03828 1.96666C9.03835 1.96656 9.03843 1.96646 9.0385 1.96636C9.06446 1.93096 9.10095 1.90466 9.14275 1.89122C9.18467 1.87774 9.22979 1.8779 9.27162 1.89166L9.27161 1.89167L9.27348 1.89227C9.31699 1.9064 9.35464 1.93445 9.38062 1.9721C9.4066 2.00976 9.41946 2.05491 9.41723 2.1006L9.41663 2.11281V2.12504V6.37504V6.87504H9.91663H13.4573C13.4956 6.87526 13.5331 6.88602 13.5657 6.90615C13.5984 6.92637 13.6249 6.95526 13.6422 6.98963Z" stroke="#009EFF"/>
</svg>
