<svg width="18" height="18" viewBox="0 0 18 18" fill="none" xmlns="http://www.w3.org/2000/svg">
<path d="M9 7.5V2M9 2L11.5 4.5M9 2L6.5 4.5" stroke="#009EFF" stroke-linecap="round" stroke-linejoin="round"/>
<path d="M5.80614 6.65242C5.01257 7.28083 4.42316 8.13044 4.11245 9.09383C3.80174 10.0572 3.78369 11.0911 4.06057 12.0647C4.33745 13.0384 4.89684 13.9081 5.66799 14.5638C6.43914 15.2195 7.38741 15.6319 8.3929 15.7486C9.39839 15.8654 10.4159 15.6814 11.3169 15.2199C12.2178 14.7584 12.9616 14.0401 13.4543 13.1559C13.947 12.2716 14.1664 11.2611 14.0848 10.2521C14.0306 9.58223 13.845 8.92954 13.5385 8.33135C13.2321 7.73316 12.8109 7.20119 12.2988 6.7658" stroke="#009EFF" stroke-linecap="round"/>
</svg>
