<svg width="12" height="15" viewBox="0 0 12 15" fill="none" xmlns="http://www.w3.org/2000/svg">
<path d="M3.96793 5.68467C4.00942 5.71312 4.05588 5.72735 4.10235 5.72735C4.14703 5.72735 4.1919 5.71406 4.23239 5.6877C4.8305 5.29615 5.51098 5.08906 6.20004 5.08906C6.8891 5.08906 7.56978 5.29615 8.16769 5.6877C8.25006 5.74158 8.35058 5.74041 8.43215 5.68467C8.51352 5.62894 8.56358 5.52679 8.56358 5.41648V4.13967C8.56358 3.06016 7.91094 2.77258 6.98774 2.77258H5.60903C4.68583 2.77258 3.8363 3.06016 3.8363 4.13967V5.41672C3.8365 5.52679 3.88656 5.62894 3.96793 5.68467Z" stroke="#009EFF"/>
<path d="M10.1681 5.99523V3.97641C10.1681 2.33526 8.7402 1 6.98517 1H5.41483C3.6598 1 2.23188 2.33526 2.23188 3.97641V5.99523C1.4366 6.87252 1 7.9841 1 9.13732C1 11.8187 3.33269 14 6.19989 14C9.06708 14 11.4 11.8187 11.4 9.13732C11.4 7.9841 10.9634 6.87252 10.1681 5.99523Z" stroke="#009EFF"/>
</svg>
