<svg width="151" height="17" viewBox="0 0 151 17" fill="none" xmlns="http://www.w3.org/2000/svg">
<path d="M10.083 0.911388C6.54134 0.911388 0.236636 1.34358 0.236636 4.71166C0.236636 9.61476 10.8463 9.65947 10.8463 12.4612C10.8463 13.3107 9.96084 14.0708 7.97631 14.0708C5.19797 14.0708 3.62561 13.9068 1.06098 13.4746C-0.0228794 13.2958 -0.389255 15.3822 0.511418 15.6058C2.19064 16.038 4.81633 16.4105 9.54867 16.4105C13.0903 16.4105 19.2576 15.7846 19.2576 12.4016C19.2576 7.49853 8.72433 7.46872 8.72433 4.86069C8.72433 4.01122 9.60974 3.25116 11.5943 3.25116H18.2959C19.6545 3.25116 19.6545 0.911388 18.2959 0.911388H10.083ZM35.1949 0.911388C31.348 0.911388 24.8601 1.13493 24.8601 6.32119V11.0604C24.8601 16.2615 31.348 16.4702 35.1949 16.4702C39.2709 16.4702 41.4538 16.0976 43.1331 15.6654C44.049 15.4418 43.6674 13.3405 42.5835 13.5343C40.0189 13.9664 38.4618 14.1304 35.6682 14.1304C33.073 14.1304 32.3861 13.5492 32.3861 11.9992V10.196C32.3861 9.58495 32.5387 9.46572 33.2104 9.46572H38.477C39.4998 9.46572 39.4998 7.46872 38.477 7.46872H33.2104C32.5387 7.46872 32.3861 7.3495 32.3861 6.73847V5.3972C32.3861 3.83238 33.073 3.26607 35.6682 3.26607H42.3087C43.6674 3.26607 43.6674 0.926288 42.3087 0.926288H35.1949V0.911388ZM58.933 0.911388C55.0861 0.911388 48.5982 1.13493 48.5982 6.32119V11.269C48.5982 16.0976 54.8113 16.3509 58.6582 16.3509C61.9251 16.3509 69.0541 16.187 69.0541 11.6714V10.196C69.0541 8.348 67.8176 7.8562 65.3598 7.8562H59.9558C59.223 7.8562 59.223 9.85321 59.9558 9.85321H61.6045C62.2762 9.85321 62.3525 9.98733 62.3525 10.5835V11.8502C62.3525 13.415 60.8717 14.2496 58.6582 14.2496C56.4447 14.2496 55.6509 13.4001 55.6509 11.8502V5.36739C55.6509 3.80258 56.8111 3.23626 59.4062 3.23626H66.0468C67.4054 3.23626 67.4054 0.896484 66.0468 0.896484H58.933V0.911388ZM73.2216 0.911388C72.2904 0.911388 72.3057 1.28396 72.5347 2.04402L76.5037 13.8025C77.038 15.2481 78.1982 16.2019 80.4728 16.2019C82.7474 16.2019 83.8312 15.2332 84.3655 13.9366C84.3655 13.9366 85.9379 9.3465 86.2127 8.52684C86.3959 7.96052 86.8538 7.96052 87.037 8.52684C87.266 9.22728 88.8231 13.8025 88.8231 13.8025C89.5864 15.3226 90.3955 16.2019 92.7158 16.2019C95.4484 16.2019 96.6391 15.114 97.0971 13.8025C97.3871 12.9828 99.4938 5.96351 100.791 1.90989C101.051 1.12003 100.975 0.911388 100.242 0.911388H97.8451C97.0971 3.38529 94.792 10.8219 94.7004 11.1349C94.5325 11.7012 94.105 11.6863 93.876 11.1349C93.7234 10.7474 91.1435 3.86219 90.7313 2.78917C90.3039 1.71615 89.1284 0.926288 87.785 0.926288C86.579 0.926288 85.4494 1.56712 85.0525 2.78917C84.6556 4.01122 82.4879 10.807 82.381 11.1349C82.2131 11.7012 81.7398 11.7012 81.5567 11.1349C81.4345 10.7921 79.0836 3.28097 78.3356 0.911388H73.2216ZM115.294 0.911388C111.569 0.911388 105.646 0.881582 105.646 5.3823V14.7265C105.646 15.6654 106.363 16.2019 108.791 16.2019C111.218 16.2019 111.935 15.5462 111.935 14.7265V10.4493C111.935 9.83831 112.088 9.71908 112.76 9.71908H117.69C118.362 9.71908 118.515 9.85321 118.515 10.4493V14.7265C118.515 15.5462 119.232 16.2019 121.659 16.2019C124.087 16.2019 124.804 15.6803 124.804 14.7265V5.3823C124.804 0.881582 119.019 0.911388 115.294 0.911388ZM128.911 0.911388C128.3 0.911388 128.041 1.35848 128.498 1.90989C130.04 3.78767 133.658 8.21387 133.903 8.52684C134.208 8.89941 134.651 9.42102 134.651 10.0022V14.7414C134.651 15.5611 135.444 16.2168 137.872 16.2168C140.299 16.2168 141.154 15.6952 141.154 14.7414V9.59986C141.154 8.98883 141.566 8.66096 141.902 8.25858C142.146 7.94562 145.565 3.84728 147.168 1.90989C147.626 1.34357 147.382 0.911388 146.756 0.911388H143.886C143.886 0.911388 140.207 5.62074 139.917 5.99332C139.627 6.3659 139.047 6.35099 138.757 5.99332C138.467 5.63565 134.925 0.911388 134.925 0.911388H128.911ZM149.565 0.911388C148.771 0.911388 148.13 1.55222 148.13 2.31227C148.13 3.07233 148.771 3.71316 149.565 3.71316C150.344 3.71316 151 3.07233 151 2.31227C151 1.53731 150.359 0.911388 149.565 0.911388ZM149.565 1.23925C150.145 1.23925 150.664 1.74596 150.664 2.31227C150.664 2.87859 150.145 3.31077 149.565 3.31077C148.985 3.31077 148.542 2.87859 148.542 2.31227C148.542 1.74596 148.985 1.23925 149.565 1.23925ZM148.954 1.77576C148.909 1.77576 148.893 1.79066 148.893 1.83537V2.69975C148.893 2.75936 148.939 2.75936 149.092 2.75936C149.26 2.75936 149.29 2.74446 149.29 2.69975V1.9695C149.29 1.92479 149.306 1.90989 149.351 1.90989H149.55C149.687 1.90989 149.748 1.9844 149.748 2.04402C149.748 2.14834 149.58 2.17815 149.412 2.17815H149.351C149.275 2.17815 149.29 2.40169 149.351 2.4464C149.519 2.58053 149.672 2.71466 149.764 2.77427C149.794 2.80407 149.855 2.77427 149.901 2.77427H150.313C150.359 2.77427 150.359 2.74446 150.313 2.71465L149.764 2.31227C149.901 2.31227 150.313 2.32717 150.313 2.04402C150.313 1.85028 150.054 1.77576 149.702 1.77576H148.954ZM115.294 2.90839C117.813 2.90839 118.515 3.56413 118.515 5.11404V6.97692C118.515 7.63265 118.377 7.70717 117.767 7.70717H112.775C112.103 7.70717 111.951 7.57304 111.951 6.97692V5.11404C111.951 3.56413 112.775 2.90839 115.294 2.90839Z" fill="#323941"/>
</svg>
