<svg width="111" height="14" viewBox="0 0 111 14" fill="none" xmlns="http://www.w3.org/2000/svg">
<path d="M7.60038 3.56635C6.55762 3.56635 5.75863 3.88459 5.20339 4.52108C4.64816 5.15757 4.37054 6.05814 4.37054 7.22277C4.37054 8.40096 4.67524 9.30829 5.28464 9.94478C5.90759 10.5813 6.74044 10.8995 7.7832 10.8995C8.33844 10.8995 8.80565 10.825 9.18483 10.6761C9.57756 10.5271 9.94997 10.3578 10.3021 10.1682C10.5323 10.3578 10.7083 10.588 10.8302 10.8589C10.9656 11.1162 11.0334 11.4209 11.0334 11.773C11.0334 12.3282 10.7219 12.8022 10.0989 13.1949C9.48954 13.5741 8.55512 13.7637 7.29568 13.7637C6.38834 13.7637 5.53518 13.6351 4.73618 13.3778C3.93718 13.1205 3.23975 12.7277 2.64389 12.1996C2.04803 11.6579 1.57405 10.9808 1.22195 10.1682C0.88339 9.34215 0.714111 8.36033 0.714111 7.22277C0.714111 6.16647 0.876619 5.23882 1.20163 4.43983C1.54019 3.62729 1.99386 2.9434 2.56264 2.38817C3.14496 1.83293 3.82207 1.41312 4.59399 1.12873C5.3659 0.844343 6.19198 0.702148 7.07223 0.702148C8.31812 0.702148 9.27963 0.905283 9.95675 1.31155C10.6474 1.71782 10.9927 2.2392 10.9927 2.87569C10.9927 3.22779 10.9047 3.53249 10.7287 3.7898C10.5526 4.0471 10.3495 4.25024 10.1193 4.3992C9.76715 4.16898 9.38797 3.97262 8.9817 3.81011C8.58897 3.6476 8.12853 3.56635 7.60038 3.56635Z" fill="#323941"/>
<path d="M15.8464 1.45375C16.0766 1.31832 16.4219 1.18967 16.8824 1.06779C17.3564 0.945909 17.8303 0.884969 18.3043 0.884969C18.9814 0.884969 19.5773 0.986536 20.0919 1.18967C20.6201 1.37926 20.9586 1.68397 21.1076 2.10378C21.3513 2.80798 21.6154 3.62729 21.8998 4.56171C22.1842 5.49613 22.4686 6.4644 22.753 7.46654C23.0374 8.45513 23.315 9.43694 23.5858 10.412C23.8567 11.3735 24.0937 12.2267 24.2968 12.9715C24.1343 13.1611 23.8905 13.31 23.5655 13.4184C23.2405 13.5403 22.8545 13.6012 22.4076 13.6012C22.0826 13.6012 21.805 13.5741 21.5748 13.52C21.3581 13.4658 21.1753 13.3845 21.0263 13.2762C20.8909 13.1679 20.7758 13.0257 20.681 12.8496C20.5997 12.6736 20.5253 12.4704 20.4575 12.2402L20.0919 10.8386H16.4152C16.3068 11.2448 16.1985 11.6647 16.0901 12.098C15.9818 12.5314 15.8735 12.9512 15.7651 13.3574C15.5755 13.4252 15.3724 13.4793 15.1557 13.52C14.9526 13.5741 14.7021 13.6012 14.4041 13.6012C13.7135 13.6012 13.1989 13.4861 12.8603 13.2559C12.5353 13.0121 12.3728 12.6803 12.3728 12.2605C12.3728 12.0709 12.3999 11.8813 12.454 11.6917C12.5082 11.5021 12.5691 11.2787 12.6369 11.0214C12.7317 10.6558 12.8603 10.2021 13.0228 9.66039C13.1989 9.1187 13.3885 8.53638 13.5916 7.91343C13.7947 7.27694 14.0114 6.62691 14.2416 5.96334C14.4718 5.29977 14.6885 4.67682 14.8917 4.0945C15.0948 3.49864 15.2776 2.97049 15.4401 2.51005C15.6162 2.04961 15.7516 1.69751 15.8464 1.45375ZM18.284 4.07419C18.0944 4.64296 17.8777 5.27945 17.634 5.98365C17.4038 6.67431 17.1938 7.37851 17.0043 8.09625H19.5231C19.3335 7.36497 19.1372 6.654 18.934 5.96334C18.7444 5.25914 18.5684 4.62942 18.4059 4.07419H18.284Z" fill="#323941"/>
<path d="M27.8507 13.459C27.2684 13.459 26.8079 13.2897 26.4694 12.9512C26.1308 12.6126 25.9615 12.1522 25.9615 11.5699V1.06779C26.1105 1.04071 26.3475 1.00685 26.6725 0.966223C26.9975 0.912053 27.309 0.884969 27.6069 0.884969C27.9184 0.884969 28.1893 0.912053 28.4195 0.966223C28.6632 1.00685 28.8664 1.0881 29.0289 1.20998C29.1914 1.33187 29.3133 1.50114 29.3945 1.71782C29.4758 1.9345 29.5164 2.21889 29.5164 2.57099V10.5948H34.1682C34.263 10.7438 34.351 10.9469 34.4323 11.2042C34.5135 11.448 34.5541 11.7053 34.5541 11.9761C34.5541 12.5178 34.439 12.9038 34.2088 13.134C33.9786 13.3507 33.6739 13.459 33.2947 13.459H27.8507Z" fill="#323941"/>
<path d="M39.931 13.3168C39.7821 13.3574 39.5451 13.3981 39.2201 13.4387C38.9086 13.4793 38.5971 13.4996 38.2856 13.4996C37.9742 13.4996 37.6965 13.4726 37.4528 13.4184C37.2226 13.3778 37.0262 13.2965 36.8637 13.1746C36.7012 13.0527 36.5793 12.8835 36.4981 12.6668C36.4168 12.4501 36.3762 12.1657 36.3762 11.8136V1.0881C36.5251 1.06102 36.7621 1.02716 37.0871 0.986537C37.4122 0.932368 37.7236 0.905283 38.0216 0.905283C38.333 0.905283 38.6039 0.932368 38.8341 0.986537C39.0779 1.02716 39.281 1.10842 39.4435 1.2303C39.606 1.35218 39.7279 1.52146 39.8091 1.73814C39.8904 1.95481 39.931 2.2392 39.931 2.5913V13.3168Z" fill="#323941"/>
<path d="M51.219 1.0881C51.3138 1.23707 51.395 1.4402 51.4627 1.69751C51.544 1.94127 51.5846 2.19857 51.5846 2.46942C51.5846 2.99757 51.4695 3.37676 51.2393 3.60698C51.0226 3.82365 50.7247 3.93199 50.3455 3.93199H46.0797V6.22741H50.5283C50.6367 6.37638 50.7247 6.57274 50.7924 6.81651C50.8736 7.06027 50.9143 7.31757 50.9143 7.58842C50.9143 8.10303 50.7992 8.47544 50.5689 8.70566C50.3523 8.92234 50.0543 9.03067 49.6752 9.03067H46.1203V13.3168C45.9713 13.3574 45.7343 13.3981 45.4093 13.4387C45.0978 13.4793 44.7864 13.4996 44.4749 13.4996C44.1634 13.4996 43.8858 13.4726 43.642 13.4184C43.4118 13.3778 43.2155 13.2965 43.053 13.1746C42.8904 13.0527 42.7686 12.8835 42.6873 12.6668C42.6061 12.4501 42.5654 12.1657 42.5654 11.8136V2.97726C42.5654 2.39494 42.7347 1.9345 43.0733 1.59594C43.4118 1.25738 43.8723 1.0881 44.4546 1.0881H51.219Z" fill="#323941"/>
<path d="M52.6484 7.22277C52.6484 6.16647 52.8109 5.23205 53.1359 4.41951C53.4745 3.60698 53.9281 2.92986 54.4969 2.38817C55.0792 1.83293 55.7563 1.41312 56.5283 1.12873C57.3137 0.844343 58.1601 0.702148 59.0674 0.702148C59.9748 0.702148 60.8144 0.844343 61.5863 1.12873C62.3718 1.41312 63.0557 1.83293 63.638 2.38817C64.2203 2.92986 64.674 3.60698 64.999 4.41951C65.3375 5.23205 65.5068 6.16647 65.5068 7.22277C65.5068 8.27908 65.3443 9.22027 65.0193 10.0463C64.6943 10.8589 64.2406 11.5428 63.6583 12.098C63.0895 12.6397 62.4124 13.0527 61.6269 13.3371C60.8415 13.6215 59.9883 13.7637 59.0674 13.7637C58.1466 13.7637 57.2934 13.6215 56.5079 13.3371C55.7225 13.0392 55.0454 12.6126 54.4766 12.0574C53.9078 11.5021 53.4609 10.8183 53.1359 10.0057C52.8109 9.19318 52.6484 8.26553 52.6484 7.22277ZM56.3048 7.22277C56.3048 8.45513 56.5553 9.376 57.0564 9.98541C57.5575 10.5948 58.2278 10.8995 59.0674 10.8995C59.9206 10.8995 60.5977 10.5948 61.0988 9.98541C61.5999 9.376 61.8504 8.45513 61.8504 7.22277C61.8504 6.00397 61.5999 5.08986 61.0988 4.48046C60.6113 3.87105 59.9409 3.56635 59.0878 3.56635C58.2481 3.56635 57.571 3.87105 57.0564 4.48046C56.5553 5.07632 56.3048 5.99042 56.3048 7.22277Z" fill="#323941"/>
<path d="M71.0752 9.41663V13.3168C70.9263 13.3574 70.6893 13.3981 70.3643 13.4387C70.0528 13.4793 69.7413 13.4996 69.4299 13.4996C69.1184 13.4996 68.8408 13.4726 68.597 13.4184C68.3668 13.3778 68.1704 13.2965 68.0079 13.1746C67.8589 13.0527 67.7438 12.8835 67.6626 12.6668C67.5813 12.4501 67.5407 12.1657 67.5407 11.8136V2.24597C67.5407 1.96158 67.6152 1.74491 67.7641 1.59594C67.9267 1.43343 68.1433 1.30478 68.4142 1.20998C68.8746 1.04748 69.4095 0.932367 70.0189 0.864655C70.6283 0.783402 71.2784 0.742775 71.969 0.742775C73.8379 0.742775 75.2463 1.1355 76.1942 1.92096C77.1422 2.70641 77.6162 3.76948 77.6162 5.11017C77.6162 5.9498 77.3995 6.66754 76.9661 7.2634C76.5328 7.85926 76.0182 8.3197 75.4223 8.64472C75.9099 9.30829 76.3906 9.93124 76.8646 10.5136C77.3386 11.0959 77.711 11.624 77.9818 12.098C77.8464 12.572 77.5959 12.9376 77.2302 13.1949C76.8781 13.4387 76.4786 13.5606 76.0317 13.5606C75.7338 13.5606 75.4765 13.5267 75.2598 13.459C75.0431 13.3913 74.8535 13.2965 74.691 13.1746C74.5285 13.0527 74.3796 12.9038 74.2441 12.7277C74.1087 12.5517 73.9801 12.3621 73.8582 12.159L72.1519 9.41663H71.0752ZM72.355 6.71494C72.8696 6.71494 73.2759 6.58629 73.5738 6.32898C73.8717 6.05814 74.0207 5.66541 74.0207 5.1508C74.0207 4.63619 73.8514 4.25024 73.5129 3.99293C73.1878 3.72209 72.6665 3.58666 71.9487 3.58666C71.7456 3.58666 71.5831 3.59343 71.4612 3.60698C71.3393 3.62052 71.2039 3.64083 71.0549 3.66792V6.71494H72.355Z" fill="#323941"/>
<path d="M91.0713 12.9715C90.8817 13.1611 90.6041 13.3033 90.2385 13.3981C89.8864 13.5064 89.4598 13.5606 88.9587 13.5606C88.4577 13.5606 87.9837 13.4861 87.5368 13.3371C87.0899 13.1882 86.7242 12.8293 86.4398 12.2605L84.4288 8.15719C84.2257 7.73738 84.0429 7.34466 83.8804 6.97901C83.7178 6.59983 83.5418 6.16647 83.3522 5.67895L83.2303 5.69926C83.2845 6.43055 83.3116 7.17538 83.3116 7.93375C83.3251 8.69212 83.3319 9.43694 83.3319 10.1682V13.3168C83.1829 13.3574 82.9527 13.3981 82.6412 13.4387C82.3433 13.4793 82.0454 13.4996 81.7474 13.4996C81.4495 13.4996 81.1854 13.4793 80.9552 13.4387C80.725 13.3981 80.5354 13.3168 80.3864 13.1949C80.2375 13.0731 80.1224 12.9105 80.0411 12.7074C79.9599 12.4907 79.9192 12.2131 79.9192 11.8746V1.71782C80.1088 1.44698 80.4 1.24384 80.7927 1.10842C81.1854 0.972995 81.6052 0.905283 82.0521 0.905283C82.5532 0.905283 83.0272 0.986537 83.4741 1.14904C83.9345 1.29801 84.3002 1.65011 84.571 2.20535L86.6024 6.30867C86.8055 6.72848 86.9883 7.12798 87.1508 7.50716C87.3133 7.87281 87.4894 8.29939 87.679 8.78691L87.7805 8.7666C87.7264 8.03531 87.6925 7.30403 87.679 6.57274C87.6654 5.84146 87.6587 5.11017 87.6587 4.37889V1.0881C87.8076 1.04748 88.0311 1.00685 88.329 0.966223C88.6405 0.925596 88.9452 0.905283 89.2431 0.905283C89.839 0.905283 90.2926 1.01362 90.6041 1.2303C90.9156 1.43343 91.0713 1.86679 91.0713 2.53036V12.9715Z" fill="#323941"/>
<path d="M97.2611 13.3168C97.1121 13.3574 96.8751 13.3981 96.5501 13.4387C96.2386 13.4793 95.9271 13.4996 95.6157 13.4996C95.3042 13.4996 95.0266 13.4726 94.7828 13.4184C94.5526 13.3778 94.3562 13.2965 94.1937 13.1746C94.0312 13.0527 93.9093 12.8835 93.8281 12.6668C93.7468 12.4501 93.7062 12.1657 93.7062 11.8136V1.0881C93.8552 1.06102 94.0922 1.02716 94.4172 0.986537C94.7422 0.932368 95.0537 0.905283 95.3516 0.905283C95.6631 0.905283 95.9339 0.932368 96.1641 0.986537C96.4079 1.02716 96.611 1.10842 96.7735 1.2303C96.936 1.35218 97.0579 1.52146 97.1392 1.73814C97.2204 1.95481 97.2611 2.2392 97.2611 2.5913V13.3168Z" fill="#323941"/>
<path d="M102.516 1.45375C102.746 1.31832 103.091 1.18967 103.552 1.06779C104.026 0.945909 104.5 0.884969 104.974 0.884969C105.651 0.884969 106.247 0.986536 106.761 1.18967C107.29 1.37926 107.628 1.68397 107.777 2.10378C108.021 2.80798 108.285 3.62729 108.569 4.56171C108.854 5.49613 109.138 6.4644 109.422 7.46654C109.707 8.45513 109.984 9.43694 110.255 10.412C110.526 11.3735 110.763 12.2267 110.966 12.9715C110.804 13.1611 110.56 13.31 110.235 13.4184C109.91 13.5403 109.524 13.6012 109.077 13.6012C108.752 13.6012 108.475 13.5741 108.244 13.52C108.028 13.4658 107.845 13.3845 107.696 13.2762C107.56 13.1679 107.445 13.0257 107.351 12.8496C107.269 12.6736 107.195 12.4704 107.127 12.2402L106.761 10.8386H103.085C102.976 11.2448 102.868 11.6647 102.76 12.098C102.651 12.5314 102.543 12.9512 102.435 13.3574C102.245 13.4252 102.042 13.4793 101.825 13.52C101.622 13.5741 101.372 13.6012 101.074 13.6012C100.383 13.6012 99.8684 13.4861 99.5298 13.2559C99.2048 13.0121 99.0423 12.6803 99.0423 12.2605C99.0423 12.0709 99.0694 11.8813 99.1236 11.6917C99.1777 11.5021 99.2387 11.2787 99.3064 11.0214C99.4012 10.6558 99.5298 10.2021 99.6923 9.66039C99.8684 9.1187 100.058 8.53638 100.261 7.91343C100.464 7.27694 100.681 6.62691 100.911 5.96334C101.141 5.29977 101.358 4.67682 101.561 4.0945C101.764 3.49864 101.947 2.97049 102.11 2.51005C102.286 2.04961 102.421 1.69751 102.516 1.45375ZM104.954 4.07419C104.764 4.64296 104.547 5.27945 104.303 5.98365C104.073 6.67431 103.863 7.37851 103.674 8.09625H106.193C106.003 7.36497 105.807 6.654 105.604 5.96334C105.414 5.25914 105.238 4.62942 105.075 4.07419H104.954Z" fill="#323941"/>
</svg>
