<svg width="90" height="90" viewBox="0 0 90 90" fill="none" xmlns="http://www.w3.org/2000/svg">
<g clip-path="url(#clip0_470_6385)">
<path d="M61.6922 57.417C60.4699 58.3442 59.4724 59.535 58.7737 60.9008C58.0749 62.2666 57.693 63.7723 57.6562 65.3061" stroke="#009EFF" stroke-width="2" stroke-linecap="round" stroke-linejoin="round"/>
<path d="M49.2188 76.5845V80.1563C49.2188 80.9023 48.9224 81.6176 48.395 82.1451C47.8675 82.6725 47.1522 82.9688 46.4062 82.9688H43.5938C42.8478 82.9688 42.1325 82.6725 41.605 82.1451C41.0776 81.6176 40.7812 80.9023 40.7812 80.1563V76.5845C41.6358 77.0802 42.6058 77.3421 43.5938 77.3438H46.4062C47.3942 77.3421 48.3642 77.0802 49.2188 76.5845V76.5845Z" stroke="#999999" stroke-width="2" stroke-linecap="round" stroke-linejoin="round"/>
<path d="M52.0312 66.0938V71.7188C52.0312 73.2106 51.4386 74.6413 50.3837 75.6962C49.3288 76.7511 47.8981 77.3438 46.4062 77.3438H43.5938C42.1019 77.3438 40.6712 76.7511 39.6163 75.6962C38.5614 74.6413 37.9688 73.2106 37.9688 71.7188V66.0938H52.0312Z" stroke="#999999" stroke-width="2" stroke-linecap="round" stroke-linejoin="round"/>
<path d="M66.0938 36.3096C66.1314 39.515 65.4379 42.6868 64.066 45.584C62.6942 48.4812 60.68 51.0277 58.1766 53.0299C56.2951 54.4824 54.7655 56.3406 53.7015 58.4661C52.6375 60.5916 52.0666 62.9298 52.0313 65.3064V66.0939H37.9688V65.3064C37.9942 63.0073 37.4898 60.7332 36.4949 58.6604C35.4999 56.5875 34.041 54.7716 32.2313 53.3533C29.3829 51.1867 27.1326 48.3311 25.6921 45.0551C24.2516 41.7791 23.6683 38.1904 23.997 34.6268C24.3258 31.0632 25.5557 27.6419 27.5712 24.6847C29.5867 21.7275 32.3215 19.3317 35.5181 17.7227C38.7148 16.1138 42.2682 15.3446 45.8441 15.4875C49.42 15.6305 52.9007 16.6808 55.9587 18.5398C59.0167 20.3988 61.5515 23.0052 63.3246 26.1138C65.0976 29.2225 66.0506 32.7311 66.0938 36.3096V36.3096Z" stroke="#999999" stroke-width="2" stroke-linecap="round" stroke-linejoin="round"/>
<path d="M42.1875 66.0938V49.2188" stroke="#999999" stroke-width="2" stroke-linecap="round" stroke-linejoin="round"/>
<path d="M47.8125 66.0938V49.2188" stroke="#999999" stroke-width="2" stroke-linecap="round" stroke-linejoin="round"/>
<path d="M42.1875 49.2188L33.75 40.7812" stroke="#999999" stroke-width="2" stroke-linecap="round" stroke-linejoin="round"/>
<path d="M47.8125 49.2188L56.25 40.7812" stroke="#999999" stroke-width="2" stroke-linecap="round" stroke-linejoin="round"/>
<path d="M36.5625 21.9516C39.126 20.4656 42.037 19.6845 45 19.6875" stroke="#009EFF" stroke-width="2" stroke-linecap="round" stroke-linejoin="round"/>
<path d="M28.125 36.5623C28.1254 32.7773 29.3983 29.1023 31.7391 26.1279" stroke="#009EFF" stroke-width="2" stroke-linecap="round" stroke-linejoin="round"/>
<path d="M45 11.25V5.625" stroke="#009EFF" stroke-width="2" stroke-linecap="round" stroke-linejoin="round"/>
<path d="M27.0985 18.6608L23.1188 14.6812" stroke="#009EFF" stroke-width="2" stroke-linecap="round" stroke-linejoin="round"/>
<path d="M19.6875 36.5625H14.0625" stroke="#009EFF" stroke-width="2" stroke-linecap="round" stroke-linejoin="round"/>
<path d="M70.3125 36.5625H75.9375" stroke="#009EFF" stroke-width="2" stroke-linecap="round" stroke-linejoin="round"/>
<path d="M62.9016 18.6608L66.8813 14.6812" stroke="#009EFF" stroke-width="2" stroke-linecap="round" stroke-linejoin="round"/>
<path d="M37.9688 70.3125H52.0312" stroke="#999999" stroke-width="2" stroke-linecap="round" stroke-linejoin="round"/>
</g>
<defs>
<clipPath id="clip0_470_6385">
<rect width="90" height="90" fill="white"/>
</clipPath>
</defs>
</svg>
